<?xml version="1.0" standalone="no"?>
<!DOCTYPE svg PUBLIC "-//W3C//DTD SVG 20010904//EN"
 "http://www.w3.org/TR/2001/REC-SVG-20010904/DTD/svg10.dtd">
<svg version="1.0" xmlns="http://www.w3.org/2000/svg"
 width="960.000000pt" height="960.000000pt" viewBox="0 0 960.000000 960.000000"
 preserveAspectRatio="xMidYMid meet">
<metadata>
Created by potrace 1.11, written by Peter Selinger 2001-2013
</metadata>
<g transform="translate(0.000000,960.000000) scale(0.100000,-0.100000)"
fill="#000000" stroke="none">
<path d="M8113 9593 c26 -7 20 -26 -16 -48 -20 -13 -33 -30 -35 -46 -4 -31
-38 -55 -57 -39 -15 12 -31 -3 -21 -19 4 -5 2 -11 -3 -13 -9 -3 -15 -58 -12
-110 1 -19 7 -28 19 -28 16 -1 16 -1 0 -14 -10 -7 -18 -24 -18 -37 0 -30 -10
-46 -30 -49 -31 -5 -37 0 -32 25 3 20 1 24 -11 19 -11 -4 -17 3 -22 25 -6 29
-25 44 -25 20 0 -5 -4 -8 -9 -4 -12 7 -20 -21 -18 -60 2 -23 7 -31 25 -33 22
-3 30 -26 12 -37 -7 -4 -7 -12 0 -25 5 -10 7 -25 4 -33 -3 -8 2 -17 10 -20 9
-4 12 -14 9 -26 -3 -12 3 -26 16 -38 l22 -18 -28 -5 c-41 -8 -42 -36 -1 -45
21 -5 33 -4 36 4 6 17 20 13 32 -10 8 -13 8 -24 2 -32 -6 -7 -10 -33 -10 -59
0 -39 3 -48 21 -54 13 -4 24 -1 31 8 17 23 54 40 61 28 3 -5 3 -15 -1 -22 -4
-7 -3 -8 5 -4 13 9 26 -18 16 -35 -6 -8 -10 -7 -17 5 -10 18 -34 21 -43 6 -12
-20 6 -50 30 -50 12 0 26 -7 29 -16 9 -23 -1 -30 -22 -18 -10 6 -32 9 -50 6
-29 -4 -32 -2 -32 20 0 21 -5 25 -35 26 -28 1 -35 -2 -35 -17 0 -25 25 -45 49
-38 11 3 30 -2 42 -11 l22 -15 -21 -8 c-15 -6 -22 -17 -22 -33 0 -14 -5 -28
-10 -31 -19 -12 11 -37 37 -30 17 4 23 1 23 -11 0 -12 7 -15 27 -11 35 7 63
-8 63 -33 0 -24 -25 -26 -38 -3 -7 12 -17 14 -41 10 -17 -4 -31 -2 -31 3 0 13
-37 22 -61 15 -14 -5 -19 -13 -16 -26 3 -10 1 -19 -4 -19 -5 0 -9 -14 -9 -30
0 -26 -5 -31 -29 -36 -34 -7 -45 -27 -31 -54 13 -24 13 -30 -2 -30 -23 0 -41
18 -42 41 -1 21 -5 24 -37 21 l-36 -3 -1 44 c-2 78 -32 127 -46 72 -5 -18 -13
-25 -31 -25 -32 0 -41 -17 -20 -40 15 -16 16 -22 5 -35 -10 -12 -10 -21 -2
-38 14 -28 17 -67 7 -90 -4 -10 -1 -27 9 -42 9 -13 16 -33 16 -45 0 -11 5 -20
12 -20 8 0 6 -6 -4 -16 -12 -12 -14 -23 -8 -40 7 -17 4 -28 -16 -49 -13 -14
-24 -34 -24 -45 0 -12 -8 -20 -22 -22 -19 -2 -22 -8 -20 -32 2 -17 13 -43 25
-60 14 -20 17 -31 9 -34 -17 -5 -15 -29 4 -36 9 -3 31 -6 50 -6 19 0 34 -4 34
-10 0 -5 7 -10 15 -10 10 0 15 -10 15 -30 0 -27 24 -53 47 -49 20 3 23 -2 8
-18 -14 -14 -18 -14 -26 -2 -5 8 -9 10 -9 6 0 -4 -9 -3 -20 3 -18 9 -47 3 -69
-16 -6 -6 34 -40 63 -52 24 -11 30 -10 41 5 8 10 16 15 20 11 11 -11 -19 -47
-48 -57 -19 -7 -27 -16 -25 -28 5 -29 -87 -26 -119 3 -28 26 -85 35 -102 17
-7 -7 -9 -18 -6 -23 3 -6 -1 -10 -10 -10 -26 0 -29 -29 -6 -54 27 -28 19 -53
-20 -61 -22 -5 -29 -12 -29 -30 0 -18 4 -23 15 -19 9 4 15 0 15 -9 0 -23 -16
-29 -30 -12 -17 21 -77 48 -88 41 -6 -3 -9 7 -8 24 0 16 -2 29 -7 29 -4 0 -21
8 -38 16 -19 10 -41 14 -60 10 -28 -6 -39 -28 -19 -40 6 -3 10 -19 10 -34 0
-24 5 -30 30 -34 49 -10 37 -32 -17 -32 -44 0 -48 2 -56 30 -13 43 -21 58 -32
56 -5 -1 -10 -10 -10 -21 0 -25 -8 -26 -52 -9 -19 7 -41 26 -49 41 -8 16 -23
28 -34 28 -24 0 -36 -36 -18 -57 12 -15 9 -16 -22 -11 -19 4 -41 8 -49 10 -8
1 -16 -4 -18 -13 -5 -20 63 -62 89 -56 14 4 17 1 12 -18 -6 -23 -5 -23 66 -19
40 2 78 9 86 15 8 6 25 8 41 4 l27 -6 -28 -22 -27 -22 40 -26 41 -26 -20 -26
c-11 -14 -20 -35 -20 -47 0 -16 -4 -20 -15 -16 -8 3 -15 1 -15 -4 0 -5 -9 -8
-20 -7 -11 1 -20 5 -20 9 0 16 -39 7 -43 -9 -4 -14 -5 -13 -6 4 -1 27 -18 38
-35 24 -11 -9 -15 -6 -20 11 l-6 23 -21 -24 c-16 -20 -32 -25 -78 -28 -34 -3
-62 0 -65 6 -4 6 -12 8 -19 6 -10 -4 -25 15 -72 95 -6 10 -17 25 -24 34 -11
13 -11 19 0 34 12 16 12 16 -5 1 -17 -16 -21 -16 -52 3 -19 11 -34 24 -34 30
0 5 5 6 10 3 6 -3 19 -3 30 0 28 9 28 55 0 55 -22 0 -25 7 -11 29 12 19 -4 51
-25 51 -9 0 -14 6 -12 12 3 7 -1 24 -8 37 -9 16 -10 29 -4 36 6 7 7 15 4 18
-7 6 -10 26 -13 77 -2 24 -2 25 -17 5 -12 -17 -16 -18 -24 -5 -7 11 -10 8 -15
-13 -4 -15 -11 -24 -16 -21 -8 5 -14 -49 -10 -83 1 -7 -2 -13 -7 -13 -13 0
-23 -27 -16 -44 3 -8 15 -16 26 -19 12 -3 17 -10 13 -17 -4 -6 -1 -25 6 -42
10 -24 10 -33 1 -36 -7 -2 -12 -18 -12 -35 l0 -31 -25 34 c-26 35 -33 78 -15
96 8 8 8 19 0 38 -8 22 -15 27 -38 24 -24 -3 -27 -7 -24 -33 2 -16 8 -35 14
-42 7 -9 7 -13 -1 -13 -6 0 -11 -4 -11 -10 0 -5 6 -10 13 -10 8 0 19 -11 25
-25 10 -22 9 -25 -8 -25 -10 0 -22 -4 -25 -10 -9 -15 -41 -12 -59 5 -8 8 -20
15 -26 15 -6 0 -16 13 -21 30 -16 45 -69 54 -69 11 0 -24 31 -51 58 -51 16 0
22 -6 22 -23 0 -19 30 -57 45 -57 3 0 10 10 15 23 7 18 9 18 9 4 1 -11 13 -22
31 -28 17 -6 30 -15 30 -20 0 -5 7 -9 15 -9 9 0 15 -10 15 -26 0 -23 3 -25 24
-20 38 9 57 -2 50 -30 -7 -26 13 -33 34 -12 9 9 19 7 42 -11 19 -13 38 -20 49
-16 11 3 26 -1 34 -10 9 -8 17 -10 19 -5 2 5 13 7 25 4 15 -4 22 -13 20 -28
-3 -30 38 -34 63 -6 23 26 42 23 47 -9 2 -18 -1 -21 -16 -16 -13 4 -24 -3 -36
-22 -13 -20 -14 -24 -3 -16 8 7 18 10 21 6 4 -3 13 0 21 7 12 10 21 8 46 -10
29 -21 31 -21 60 -4 23 14 27 21 18 31 -10 12 -7 12 18 2 16 -7 35 -17 42 -22
12 -10 82 -18 155 -20 20 -1 37 -5 37 -9 0 -4 9 -8 20 -8 11 0 20 5 20 11 0 6
-9 13 -20 16 -20 5 -29 33 -10 33 6 0 10 5 10 12 0 9 -3 9 -12 0 -15 -15 -45
-16 -53 -1 -10 16 -2 20 59 28 56 8 86 -1 46 -14 -11 -3 -20 -15 -20 -26 0
-22 11 -24 28 -7 6 6 15 8 19 4 5 -4 0 -14 -11 -21 -23 -17 -13 -35 15 -28 15
4 19 11 15 28 -6 24 8 35 46 35 14 0 18 -5 14 -15 -4 -11 3 -19 22 -26 26 -10
26 -11 8 -24 -18 -14 -18 -15 8 -25 16 -6 24 -15 20 -21 -4 -8 0 -9 15 -4 13
4 21 2 21 -5 0 -6 -4 -9 -8 -6 -14 9 -35 -12 -29 -28 6 -14 18 -16 74 -12 88
6 115 14 111 35 -3 12 -13 15 -38 14 -19 -1 -29 0 -22 3 6 3 12 10 12 15 0 6
-7 6 -18 0 -15 -8 -18 -6 -17 11 2 26 34 46 45 28 10 -16 33 -2 26 15 -6 16
10 23 44 19 14 -1 28 -3 33 -3 4 -1 7 -6 7 -12 0 -6 -7 -9 -15 -5 -22 8 -57
-30 -50 -55 4 -10 10 -17 15 -14 14 9 18 -44 4 -56 -8 -6 -11 -16 -8 -21 3 -5
0 -23 -6 -39 -11 -25 -10 -32 3 -47 27 -29 3 -92 -34 -92 -14 0 -19 7 -19 25
0 21 -3 24 -17 17 -16 -9 -43 6 -43 23 0 4 -7 14 -16 23 -17 16 -54 24 -54 11
0 -4 -8 -5 -18 -2 -12 3 -22 -3 -28 -17 l-9 -21 -28 21 -27 21 -25 -25 c-18
-18 -33 -24 -48 -20 -15 3 -32 -2 -49 -15 -26 -21 -26 -21 -31 -1 -3 11 -10
20 -16 20 -17 0 -13 -40 4 -46 22 -9 18 -21 -9 -28 -19 -5 -23 -11 -18 -28 3
-13 1 -19 -6 -15 -5 4 -12 2 -14 -5 -3 -9 -11 -9 -34 0 -21 9 -39 9 -64 2 -28
-8 -36 -7 -43 6 -7 13 -18 15 -56 9 -40 -7 -90 -8 -148 -4 -10 1 -23 6 -30 11
-13 10 -77 1 -108 -15 -25 -14 -62 -16 -253 -17 -83 0 -171 -4 -195 -8 -23 -4
-62 -5 -87 -1 -25 3 -46 2 -48 -2 -2 -5 -10 -2 -18 6 -11 11 -35 14 -88 12
-79 -2 -111 12 -103 45 4 13 0 18 -13 18 -11 0 -22 -4 -25 -10 -4 -6 -49 -8
-115 -6 -116 5 -190 -11 -190 -41 0 -8 -4 -12 -9 -9 -4 3 -16 -3 -26 -14 -10
-11 -23 -16 -29 -13 -6 4 -56 8 -111 8 -77 1 -99 4 -97 14 2 10 -7 12 -31 9
-27 -3 -34 -1 -29 11 6 16 -5 14 -103 -14 -48 -14 -96 -17 -235 -15 -141 1
-182 -2 -213 -15 -32 -13 -41 -14 -54 -3 -19 15 -248 17 -378 3 -44 -5 -159
-7 -255 -5 -230 5 -315 5 -890 0 -324 -2 -515 1 -575 8 -74 10 -97 9 -130 -3
-48 -17 -158 -19 -187 -4 -30 16 -175 21 -201 7 -15 -8 -111 -12 -297 -14
-151 -1 -314 -5 -362 -9 -71 -6 -99 -5 -150 10 -46 14 -89 18 -158 15 -164 -5
-219 -3 -233 8 -7 6 -39 10 -70 9 -31 -2 -57 1 -57 6 0 5 -6 4 -14 -2 -8 -7
-36 -11 -63 -10 -40 2 -53 -2 -77 -24 -30 -28 -41 -32 -50 -19 -3 5 -18 7 -34
4 -17 -2 -40 2 -53 9 -32 18 -47 21 -99 23 -25 0 -51 5 -59 10 -22 14 -185 18
-230 6 l-41 -11 0 -1154 0 -1153 28 -6 c15 -4 61 -10 102 -16 41 -5 115 -23
164 -39 49 -17 111 -34 138 -37 26 -4 51 -11 54 -15 3 -5 13 -9 24 -9 10 0 21
-7 24 -16 4 -9 9 -14 13 -11 3 4 17 -2 31 -13 13 -11 28 -18 32 -15 4 3 28 -4
51 -15 52 -23 69 -25 69 -6 0 10 16 14 60 14 56 0 62 -3 75 -27 18 -36 54 -51
118 -51 29 0 57 -4 63 -8 5 -5 36 -15 69 -22 33 -7 78 -20 100 -30 57 -25 108
-40 136 -40 14 0 83 -29 154 -65 119 -60 185 -86 225 -90 9 -1 33 -10 53 -20
24 -11 59 -17 95 -17 31 1 71 -3 87 -8 17 -5 80 -25 140 -43 61 -19 137 -38
170 -41 33 -4 92 -18 130 -32 39 -14 88 -28 110 -29 41 -4 159 -30 191 -42 11
-4 15 -3 10 5 -4 7 6 15 26 20 31 8 33 11 30 50 -2 34 1 40 15 37 10 -1 59 -6
110 -10 55 -4 100 -13 110 -22 16 -13 14 -14 -20 -10 -29 2 -36 0 -32 -11 3
-7 5 -16 5 -18 0 -3 5 -2 10 1 6 3 10 2 10 -3 0 -6 9 -8 20 -5 14 4 20 0 20
-12 0 -13 7 -16 32 -13 20 2 33 -2 36 -11 3 -9 0 -11 -7 -7 -7 4 -18 2 -26 -4
-8 -7 -26 -9 -39 -6 -36 9 -41 -10 -7 -24 43 -17 151 -38 157 -29 2 4 29 -1
59 -11 30 -10 89 -24 131 -29 93 -13 94 -13 94 0 0 5 -5 7 -10 4 -12 -7 -33
42 -24 56 3 5 -3 12 -13 16 -63 22 -45 40 37 35 45 -4 50 -6 50 -27 0 -13 -4
-25 -8 -27 -5 -1 -7 -20 -4 -41 3 -29 8 -37 19 -33 8 4 27 0 41 -8 27 -15 136
-36 185 -36 20 0 27 5 27 19 0 11 -5 23 -10 26 -24 15 -6 25 45 25 56 0 69 12
43 38 -16 16 10 16 119 0 62 -9 83 -16 83 -27 0 -12 2 -11 13 2 16 23 77 13
77 -12 0 -9 5 -22 10 -27 8 -8 8 -19 0 -38 -10 -28 -18 -28 -51 1 -14 12 -17
12 -22 -1 -9 -24 11 -30 105 -33 75 -2 89 1 100 16 10 14 33 20 108 25 81 7
97 11 115 31 19 22 23 23 70 13 28 -6 59 -11 71 -12 31 -3 45 -16 39 -36 -7
-22 5 -24 257 -44 87 -7 163 -18 170 -23 7 -6 40 -13 73 -17 33 -4 73 -9 88
-12 23 -4 30 -1 34 17 6 21 7 21 19 4 10 -13 48 -26 126 -42 61 -12 116 -27
121 -32 5 -5 -6 -17 -26 -30 -22 -13 -37 -31 -40 -50 -8 -39 2 -98 19 -112 8
-6 14 -29 14 -50 0 -32 -3 -39 -20 -39 -24 0 -26 -25 -3 -38 14 -8 14 -16 5
-53 -16 -66 -1 -137 35 -169 38 -34 108 -45 157 -25 46 19 50 28 26 58 l-20
25 31 11 31 11 -5 62 c-3 35 -9 79 -12 99 -6 31 -3 39 23 64 29 27 30 31 18
59 -15 37 -12 48 22 84 15 15 34 38 43 52 l16 24 -2 -29 c-1 -17 -6 -51 -9
-76 -4 -25 -3 -71 3 -102 8 -45 7 -65 -4 -98 -19 -53 -19 -103 0 -119 8 -6 14
-24 15 -38 0 -15 1 -40 1 -57 1 -16 -5 -59 -13 -95 -14 -57 -14 -68 -1 -88 13
-21 12 -30 -6 -83 -12 -32 -21 -79 -21 -103 0 -23 -7 -58 -16 -76 -13 -25 -15
-48 -10 -99 6 -67 6 -67 -29 -101 -34 -33 -44 -63 -25 -75 10 -6 7 -79 -10
-190 -5 -38 -13 -115 -16 -170 -3 -55 -12 -116 -19 -137 -12 -31 -12 -38 0
-48 10 -8 15 -31 15 -61 0 -34 4 -49 13 -49 8 0 19 -23 27 -57 13 -54 24 -72
43 -73 4 0 7 10 8 23 l0 22 10 -24 c7 -17 15 -22 30 -18 12 3 32 2 45 -3 16
-6 24 -6 24 1 0 6 7 6 20 -1 22 -12 62 2 41 14 -6 4 -11 14 -11 22 0 11 9 14
32 12 29 -3 34 1 43 30 6 18 14 29 18 26 4 -4 7 0 7 9 0 9 4 17 9 17 5 0 10
42 10 93 1 58 8 124 21 173 11 43 20 86 20 96 0 9 18 36 40 60 47 51 50 75 11
112 -24 23 -28 35 -29 84 0 36 6 69 19 94 10 20 19 43 19 50 0 48 24 90 63
115 49 31 66 51 67 78 0 10 8 45 17 77 15 49 21 58 41 58 28 0 78 -52 155
-160 46 -66 59 -77 99 -89 53 -16 66 -42 42 -78 -12 -19 -12 -27 -2 -46 6 -12
13 -42 14 -67 2 -27 10 -49 20 -57 9 -6 14 -15 11 -20 -6 -9 16 -102 31 -130
16 -29 6 -158 -14 -188 -19 -29 -20 -27 22 -48 24 -12 33 -26 42 -64 43 -173
41 -162 25 -178 -8 -9 -23 -13 -33 -10 -10 3 -22 1 -25 -6 -10 -15 16 -31 31
-18 8 6 16 -6 28 -43 12 -39 24 -58 47 -71 17 -9 34 -15 39 -12 4 3 10 -1 13
-8 4 -10 -13 -13 -67 -15 -76 -3 -101 6 -101 35 0 13 -9 19 -33 21 -27 3 -35
-1 -39 -17 -6 -23 -7 -23 -70 -25 -24 -1 -46 -6 -50 -10 -16 -15 23 -23 140
-30 67 -4 154 -9 192 -11 39 -3 178 -10 310 -15 132 -6 296 -17 365 -25 208
-24 456 -19 480 9 6 8 4 21 -5 39 -13 25 -12 29 13 54 26 25 26 26 2 9 -14 -9
-37 -22 -52 -29 -16 -6 -28 -15 -28 -19 0 -13 -122 -45 -195 -52 -38 -4 -104
-2 -145 4 -65 9 -545 50 -592 50 -10 0 -18 5 -18 11 0 6 8 8 19 4 35 -11 54 5
48 41 -4 25 -2 34 8 34 17 0 28 31 19 56 -6 16 -2 15 21 -6 19 -17 29 -21 32
-12 3 6 17 12 32 12 l26 0 -3 75 c-3 51 -1 75 7 75 18 0 13 35 -10 64 -11 14
-25 23 -31 20 -7 -4 -8 -2 -4 4 4 7 -3 16 -17 21 -28 11 -59 50 -51 63 10 16
22 7 28 -22 3 -16 10 -30 16 -30 6 0 9 4 6 9 -4 5 -2 21 4 36 14 37 -6 199
-31 247 -17 33 -17 40 -4 72 14 33 14 36 -10 54 -14 11 -25 28 -25 37 0 9 -10
30 -21 47 -18 24 -20 38 -15 78 5 40 3 52 -13 67 -16 15 -19 34 -20 121 -1
121 -12 175 -47 245 -15 28 -35 83 -46 121 -11 39 -24 76 -30 83 -7 9 -7 17 0
26 6 7 9 29 6 48 -5 27 -1 38 15 53 24 22 25 19 11 -57 -12 -62 -1 -124 25
-151 8 -8 13 -20 10 -28 -2 -7 3 -22 13 -34 15 -18 24 -20 72 -14 104 12 162
68 166 163 1 27 -4 65 -12 84 -25 59 12 199 41 153 3 -6 15 -10 26 -10 10 0
19 -7 19 -15 0 -8 4 -15 9 -15 5 0 9 14 9 30 -1 18 -6 30 -15 30 -7 0 -13 11
-13 26 0 18 -4 25 -14 21 -8 -3 -17 1 -20 9 -3 8 -10 14 -15 14 -15 0 1 -43
23 -62 12 -10 16 -17 10 -18 -21 0 -42 26 -57 71 l-15 47 57 -3 c68 -3 111
-14 111 -27 0 -6 -11 -7 -25 -4 -24 6 -35 -7 -15 -19 15 -9 12 -27 -2 -20 -7
4 -6 1 3 -7 8 -7 18 -21 22 -31 3 -9 11 -17 17 -17 17 0 24 31 9 41 -11 7 -11
9 2 9 22 0 49 -32 32 -37 -24 -8 -13 -23 17 -23 37 0 31 -25 -8 -35 l-27 -7
35 -13 c19 -8 47 -14 63 -14 22 -1 27 -6 27 -26 0 -29 15 -33 29 -8 8 14 11
15 25 4 18 -15 13 -25 -12 -27 -57 -4 -58 -4 -41 -17 9 -7 18 -21 20 -32 6
-28 59 -44 149 -45 41 -1 104 -8 140 -15 46 -11 53 -14 23 -11 -24 2 -45 0
-48 -4 -8 -13 6 -40 21 -40 8 0 14 -7 14 -15 0 -8 6 -15 13 -15 12 0 47 -59
47 -80 0 -19 -39 -10 -54 12 -13 19 -16 20 -16 5 0 -10 7 -20 15 -23 8 -4 15
-18 15 -34 0 -49 142 -143 295 -196 44 -15 113 -46 154 -68 41 -22 84 -40 96
-41 11 0 38 -14 60 -32 22 -17 72 -40 110 -52 67 -21 100 -33 137 -52 10 -5
23 -9 30 -9 6 0 19 -7 29 -16 10 -9 39 -17 64 -19 25 -2 52 -8 59 -14 9 -7 17
-8 20 -3 5 9 -29 26 -47 23 -5 -1 -11 8 -14 19 -3 11 -13 20 -22 21 -10 0 -11
2 -3 6 6 2 12 9 12 15 0 6 -6 8 -12 5 -7 -2 -22 -1 -33 4 -15 6 -11 8 18 8 21
1 37 -4 37 -10 0 -6 7 -9 15 -5 9 3 15 0 15 -9 0 -8 7 -15 16 -15 14 0 14 3 4
15 -11 13 -7 15 28 15 50 0 56 -8 31 -46 -22 -34 -24 -54 -5 -54 8 0 16 -4 18
-10 4 -14 113 -41 173 -43 38 -2 54 -7 68 -25 17 -21 48 -31 46 -14 -4 23 4
31 33 34 22 2 36 10 44 26 7 15 14 20 18 13 4 -6 4 -16 0 -23 -4 -6 -8 -25 -8
-41 -1 -24 6 -32 37 -49 45 -23 55 -18 41 20 -11 31 -7 62 8 62 5 0 7 -7 4
-16 -4 -11 1 -18 14 -21 23 -6 26 -34 8 -63 -7 -10 -10 -20 -8 -22 3 -2 21
-17 40 -34 19 -18 50 -35 68 -39 l32 -7 0 699 c0 684 0 699 -19 700 -11 1 -21
-6 -23 -15 -3 -14 -8 -11 -22 11 -14 21 -16 31 -7 40 14 14 15 57 1 57 -6 0
-25 -7 -43 -16 -20 -11 -32 -13 -35 -6 -2 6 -10 8 -19 5 -11 -4 -14 -1 -11 13
2 13 13 20 33 21 17 1 39 3 50 4 57 7 72 0 72 -31 0 -17 5 -36 11 -42 9 -9 12
82 12 385 0 366 -1 397 -17 406 -17 10 -17 12 0 25 18 14 23 36 8 36 -5 0 -11
7 -15 15 -3 8 0 14 7 12 18 -3 23 1523 5 1535 -11 6 -11 11 0 28 17 29 17
1138 -1 1177 -9 21 -9 27 1 31 9 3 10 7 2 17 -8 9 -8 15 0 20 18 11 12 35 -7
28 -16 -6 -17 -5 -3 12 11 14 12 19 3 22 -7 3 -13 9 -13 15 0 6 7 8 15 4 13
-5 15 48 15 439 0 340 -3 445 -12 445 -9 0 -9 3 0 12 7 7 12 27 12 46 0 29 -3
33 -17 27 -10 -4 -26 -10 -35 -12 -10 -3 -18 -8 -18 -12 0 -9 -43 -7 -58 3 -7
4 -21 4 -32 1 -14 -4 -20 -2 -20 9 0 12 -8 14 -32 11 l-33 -5 33 12 c17 6 32
17 32 24 0 8 7 14 15 14 9 0 18 7 21 15 8 20 21 19 41 -5 19 -21 48 -26 58
-10 3 6 15 10 26 10 15 0 19 7 19 38 0 21 -3 42 -7 45 -4 4 -7 25 -8 47 -2 57
-3 60 -19 60 -7 0 -19 7 -26 15 -10 12 -9 16 4 21 9 3 13 10 10 15 -3 5 2 6
10 3 9 -3 16 -10 16 -16 0 -5 4 -7 8 -4 5 3 10 226 11 497 1 397 -1 490 -11
487 -7 -3 -15 -18 -18 -34 -5 -27 -6 -28 -12 -6 -4 16 1 31 18 51 23 28 24 33
24 205 l0 176 -333 0 -334 0 -12 -24 c-14 -26 -57 -50 -72 -41 -5 4 -2 19 6
36 15 28 15 29 -9 29 -13 0 -27 -6 -29 -12 -4 -10 -6 -10 -6 -1 -1 9 -50 12
-192 13 -114 0 -188 -4 -184 -9 3 -5 1 -12 -5 -16 -5 -3 -10 0 -10 9 0 12 -26
14 -162 14 -90 0 -155 -2 -145 -5z m444 -35 c-3 -7 -5 -2 -5 12 0 14 2 19 5
13 2 -7 2 -19 0 -25z m1000 -104 c-1 -20 -3 -32 -5 -25 -2 6 -10 11 -18 11 -8
0 -14 3 -14 7 0 5 30 40 37 42 0 1 1 -15 0 -35z m-667 22 c0 -2 -7 -9 -15 -16
-12 -10 -15 -10 -15 4 0 9 7 16 15 16 8 0 15 -2 15 -4z m-200 -40 c0 -8 -7
-16 -15 -20 -15 -5 -21 14 -8 27 11 12 23 8 23 -7z m253 -46 c-3 -11 -9 -17
-15 -14 -5 3 -4 12 3 20 16 19 18 18 12 -6z m637 8 c0 -4 -5 -10 -10 -13 -6
-4 -8 -10 -6 -13 2 -4 1 -23 -4 -42 l-8 -35 -2 35 c-2 19 -4 44 -5 55 -1 14 4
21 16 21 11 0 19 -4 19 -8z m-1350 -47 c0 -6 -4 -13 -10 -16 -5 -3 -10 1 -10
9 0 9 5 16 10 16 6 0 10 -4 10 -9z m660 -26 c0 -8 -4 -15 -10 -15 -5 0 -10 7
-10 15 0 8 5 15 10 15 6 0 10 -7 10 -15z m-173 -97 c-3 -8 -6 -5 -6 6 -1 11 2
17 5 13 3 -3 4 -12 1 -19z m855 -123 c-6 -34 -12 -32 -12 6 0 16 4 28 9 25 4
-3 6 -17 3 -31z m-1289 -22 c8 -7 -34 -32 -45 -26 -5 2 -8 11 -8 19 0 14 41
20 53 7z m-339 -52 c-6 -6 -24 19 -24 34 1 6 7 1 15 -9 8 -11 12 -22 9 -25z
m99 16 c4 3 7 -7 6 -23 0 -16 -3 -23 -6 -16 -2 6 -13 12 -23 12 -10 0 -21 -6
-23 -12 -4 -10 -8 -9 -16 2 -13 19 -14 33 -2 25 6 -3 16 1 23 9 8 9 17 11 24
5 6 -5 14 -6 17 -2z m197 -21 c0 -8 -10 -13 -25 -13 -25 0 -31 7 -18 20 12 12
43 7 43 -7z m50 -7 c0 -5 -4 -9 -10 -9 -5 0 -10 7 -10 16 0 8 5 12 10 9 6 -3
10 -10 10 -16z m1280 7 c0 -22 -11 -46 -21 -46 -5 0 -4 11 1 24 5 13 6 27 3
30 -4 3 -1 6 5 6 7 0 12 -6 12 -14z m-90 -33 c0 -10 -4 -24 -8 -31 -6 -8 -9
-2 -9 18 0 16 4 30 9 30 4 0 8 -8 8 -17z m-1438 -48 c6 -14 16 -25 22 -25 6 0
3 -5 -7 -11 -20 -12 -41 7 -50 44 -8 27 22 21 35 -8z m1328 -30 c0 -5 -5 -3
-10 5 -5 8 -10 20 -10 25 0 6 5 3 10 -5 5 -8 10 -19 10 -25z m-580 -10 c10
-12 10 -15 -4 -15 -9 0 -16 7 -16 15 0 8 2 15 4 15 2 0 9 -7 16 -15z m-776
-11 c9 -23 7 -46 -3 -40 -11 7 -21 56 -11 56 4 0 11 -7 14 -16z m1406 -14 c0
-11 -4 -20 -10 -20 -5 0 -10 9 -10 20 0 11 5 20 10 20 6 0 10 -9 10 -20z
m-610 -31 c0 -4 -9 -5 -20 -2 -11 3 -20 12 -20 19 0 12 4 12 20 2 11 -7 20
-16 20 -19z m500 6 c0 -8 -4 -15 -10 -15 -5 0 -10 7 -10 15 0 8 5 15 10 15 6
0 10 -7 10 -15z m-1150 -85 c0 -5 -4 -10 -10 -10 -5 0 -10 5 -10 10 0 6 5 10
10 10 6 0 10 -4 10 -10z m-70 -125 c0 -8 -9 -15 -20 -15 -20 0 -26 11 -13 23
12 13 33 7 33 -8z m1467 -17 c-3 -7 -5 -2 -5 12 0 14 2 19 5 13 2 -7 2 -19 0
-25z m-1532 -168 c3 -5 2 -10 -4 -10 -5 0 -13 5 -16 10 -3 6 -2 10 4 10 5 0
13 -4 16 -10z m65 -10 c0 -5 -5 -10 -11 -10 -5 0 -7 5 -4 10 3 6 8 10 11 10 2
0 4 -4 4 -10z m1176 -86 c-4 -9 -9 -15 -11 -12 -3 3 -3 13 1 22 4 9 9 15 11
12 3 -3 3 -13 -1 -22z m244 -89 c-7 -8 -17 -15 -23 -15 -5 0 -2 9 8 20 21 23
35 19 15 -5z m18 -137 c0 -13 3 -34 7 -48 7 -22 6 -23 -6 -8 -8 9 -23 18 -33
20 -26 4 -30 38 -5 38 10 0 19 5 19 10 0 6 4 10 9 10 5 0 9 -10 9 -22z m-1794
-93 c11 -8 17 -17 15 -20 -7 -6 -59 18 -59 28 0 12 23 8 44 -8z m1503 -27 c-3
-7 -5 -2 -5 12 0 14 2 19 5 13 2 -7 2 -19 0 -25z m-32 -98 c3 -5 1 -10 -4 -10
-6 0 -11 5 -11 10 0 6 2 10 4 10 3 0 8 -4 11 -10z m210 -50 c3 -5 1 -10 -4
-10 -6 0 -11 5 -11 10 0 6 2 10 4 10 3 0 8 -4 11 -10z m125 -59 c0 -4 -9 -18
-20 -31 -16 -19 -20 -20 -20 -6 0 22 22 56 32 50 4 -3 8 -9 8 -13z m-1414
-365 c1 -1 5 -19 8 -40 7 -34 5 -38 -7 -28 -7 7 -17 8 -21 4 -5 -4 -7 0 -6 8
4 28 0 41 -11 34 -10 -6 -28 12 -29 28 0 6 59 0 66 -6z m-176 -10 c0 -3 -4 -8
-10 -11 -5 -3 -10 -1 -10 4 0 6 5 11 10 11 6 0 10 -2 10 -4z m220 -31 c0 -8
-4 -15 -10 -15 -5 0 -10 7 -10 15 0 8 5 15 10 15 6 0 10 -7 10 -15z m-618 -15
c-2 -7 3 -17 10 -21 10 -7 10 -9 -2 -9 -8 1 -23 6 -32 14 -13 10 -15 15 -6 24
15 15 34 9 30 -8z m378 -25 c11 -13 10 -14 -4 -9 -9 3 -16 10 -16 15 0 13 6
11 20 -6z m-1212 -78 c5 -24 -25 -22 -40 3 -17 26 -27 25 -38 -2 -6 -17 -9
-18 -9 -6 -1 9 3 20 9 23 6 4 3 16 -7 31 l-16 25 49 -29 c27 -15 50 -36 52
-45z m-246 21 c-9 -9 -12 -7 -12 12 0 19 3 21 12 12 9 -9 9 -15 0 -24z m1408
-20 c0 -16 -3 -19 -11 -11 -6 6 -8 16 -5 22 11 17 16 13 16 -11z m-1305 -14
c0 -10 4 -22 10 -26 14 -10 2 -18 -13 -9 -18 11 -27 64 -10 59 7 -3 13 -13 13
-24z m1060 16 c-3 -5 -11 -10 -16 -10 -6 0 -7 5 -4 10 3 6 11 10 16 10 6 0 7
-4 4 -10z m-310 -20 c3 -5 -3 -10 -14 -10 -12 0 -21 5 -21 10 0 6 6 10 14 10
8 0 18 -4 21 -10z m525 -5 c0 -9 -9 -15 -23 -15 -13 0 -27 -4 -33 -10 -12 -12
-39 4 -30 18 3 6 15 8 26 5 11 -3 20 0 20 6 0 6 9 11 20 11 11 0 20 -7 20 -15z
m-1067 -44 c36 -52 35 -63 -5 -56 -69 12 -82 23 -71 63 4 18 15 25 43 31 3 0
17 -17 33 -38z m607 10 c0 -5 -7 -11 -15 -15 -15 -5 -20 5 -8 17 9 10 23 9 23
-2z m794 -10 c3 -5 -3 -11 -15 -14 -16 -4 -18 -3 -8 9 13 16 16 17 23 5z
m-1517 -28 c-8 -7 -37 9 -31 19 3 5 12 4 20 -3 8 -6 13 -14 11 -16z m1193 -34
c0 -6 -4 -7 -10 -4 -5 3 -10 11 -10 16 0 6 5 7 10 4 6 -3 10 -11 10 -16z
m-666 -65 c9 -3 16 -10 16 -16 0 -5 -4 -6 -10 -3 -5 3 -10 -1 -10 -9 0 -9 -4
-16 -9 -16 -12 0 -23 29 -15 41 6 11 8 11 28 3z m486 -6 c0 -4 -5 -8 -11 -8
-7 0 -18 -8 -25 -17 -7 -10 -15 -15 -19 -11 -4 3 2 15 12 25 19 20 43 26 43
11z m-680 -28 c0 -5 -4 -10 -10 -10 -5 0 -10 5 -10 10 0 6 5 10 10 10 6 0 10
-4 10 -10z m2252 -5 c0 -5 -5 -11 -11 -13 -6 -2 -11 4 -11 13 0 9 5 15 11 13
6 -2 11 -8 11 -13z m-1752 -5 c0 -5 -2 -10 -4 -10 -3 0 -8 5 -11 10 -3 6 -1
10 4 10 6 0 11 -4 11 -10z m1988 -3 c9 -10 5 -13 -16 -11 -34 2 -34 2 -27 14
9 14 31 12 43 -3z m-278 -7 c8 -5 11 -10 5 -10 -5 0 -17 5 -25 10 -8 5 -10 10
-5 10 6 0 17 -5 25 -10z m340 -39 c0 -6 -4 -13 -10 -16 -5 -3 -10 1 -10 9 0 9
5 16 10 16 6 0 10 -4 10 -9z m-1753 -27 c-3 -3 -12 -4 -19 -1 -8 3 -5 6 6 6
11 1 17 -2 13 -5z m1564 -87 c-10 -9 -11 -8 -5 6 3 10 9 15 12 12 3 -3 0 -11
-7 -18z m-338 -71 c22 -17 22 -23 -1 -21 -22 1 -42 13 -42 26 0 13 22 11 43
-5z m375 -82 c18 -8 32 -19 33 -22 5 -47 2 -72 -8 -72 -7 0 -13 11 -13 25 0
15 -9 31 -25 41 -14 9 -25 23 -25 30 0 17 0 17 38 -2z m-48 -64 c0 -6 11 -15
25 -20 15 -6 23 -15 19 -23 -7 -18 -106 -16 -112 3 -3 7 0 10 7 6 6 -4 11 -3
11 3 0 6 7 8 15 5 10 -4 15 0 15 15 0 12 5 21 10 21 6 0 10 -5 10 -10z m126
-15 c14 -13 13 -15 -5 -15 -12 0 -21 6 -21 15 0 8 3 15 6 15 3 0 12 -7 20 -15z
m-68 -102 l3 -31 -33 16 c-34 17 -34 17 -14 34 28 23 40 18 44 -19z m-4106
-12 c2 -17 1 -28 -4 -25 -8 5 -12 54 -4 54 2 0 6 -13 8 -29z m3798 13 c0 -8
-5 -12 -10 -9 -6 4 -8 11 -5 16 9 14 15 11 15 -7z m-3690 -13 c0 -5 -9 -11
-20 -14 -22 -6 -26 3 -8 21 11 11 28 7 28 -7z m3600 -17 c0 -8 -4 -12 -10 -9
-5 3 -10 10 -10 16 0 5 5 9 10 9 6 0 10 -7 10 -16z m-2723 -36 c-3 -8 -6 -5
-6 6 -1 11 2 17 5 13 3 -3 4 -12 1 -19z m703 -50 c0 6 7 12 15 12 16 0 20 -18
7 -35 -13 -19 -37 -10 -40 15 -2 20 -1 22 7 10 7 -10 11 -11 11 -2z m-85 -8
c4 -6 15 -8 26 -5 13 4 19 2 19 -9 0 -22 -17 -28 -41 -15 -17 9 -23 8 -30 -2
-6 -10 -9 -6 -9 14 0 27 22 38 35 17z m-825 -14 c0 -8 -6 -16 -14 -19 -10 -4
-12 0 -9 14 6 22 23 26 23 5z m771 -37 c-8 -20 -10 -22 -16 -7 -4 9 -1 23 7
32 17 18 21 6 9 -25z m2629 31 c0 -5 -4 -10 -9 -10 -6 0 -13 5 -16 10 -3 6 1
10 9 10 9 0 16 -4 16 -10z m30 -10 c0 -5 -4 -10 -10 -10 -5 0 -10 5 -10 10 0
6 5 10 10 10 6 0 10 -4 10 -10z m-2930 -35 c0 -9 -6 -12 -15 -9 -8 4 -15 10
-15 15 0 5 7 9 15 9 8 0 15 -7 15 -15z m355 5 c-3 -5 -11 -10 -16 -10 -6 0 -7
5 -4 10 3 6 11 10 16 10 6 0 7 -4 4 -10z m-3718 -32 c-3 -7 -5 -2 -5 12 0 14
2 19 5 13 2 -7 2 -19 0 -25z m1972 -21 c0 -21 -1 -21 -9 -2 -12 28 -12 37 0
30 6 -3 10 -16 9 -28z m1591 23 c0 -5 -4 -10 -10 -10 -5 0 -10 5 -10 10 0 6 5
10 10 10 6 0 10 -4 10 -10z m415 0 c3 -5 -1 -10 -9 -10 -9 0 -16 5 -16 10 0 6
4 10 9 10 6 0 13 -4 16 -10z m-2075 -19 c0 -11 3 -28 7 -38 6 -17 6 -17 -10
-1 -9 9 -17 24 -17 32 0 10 -6 13 -17 9 -11 -4 -14 -3 -9 5 12 20 46 14 46 -7z
m1245 -21 c3 -5 1 -10 -4 -10 -6 0 -11 5 -11 10 0 6 2 10 4 10 3 0 8 -4 11
-10z m174 -19 c-15 -5 -22 6 -14 19 6 9 10 9 16 -1 5 -8 4 -15 -2 -18z m1257
18 c4 -6 -1 -9 -12 -8 -11 2 -24 0 -30 -3 -6 -4 -21 -4 -33 -1 -17 4 -19 8 -9
14 19 12 76 11 84 -2z m124 7 c0 -2 -7 -6 -15 -10 -8 -3 -15 -1 -15 4 0 6 7
10 15 10 8 0 15 -2 15 -4z m-2700 -27 c0 -5 -9 -9 -20 -9 -22 0 -27 16 -7 23
15 5 27 -1 27 -14z m1887 -1 c-3 -8 -6 -5 -6 6 -1 11 2 17 5 13 3 -3 4 -12 1
-19z m1334 1 c11 -11 17 -24 13 -27 -3 -4 -9 -1 -11 6 -3 6 -13 12 -24 12 -10
0 -19 7 -19 15 0 21 16 19 41 -6z m-5714 -11 c-3 -8 -6 -5 -6 6 -1 11 2 17 5
13 3 -3 4 -12 1 -19z m2910 -10 c-3 -8 -6 -5 -6 6 -1 11 2 17 5 13 3 -3 4 -12
1 -19z m1532 -4 c-15 -18 -22 -13 -13 10 3 9 10 13 16 10 5 -3 4 -12 -3 -20z
m-739 1 c0 -8 8 -15 18 -15 12 0 13 -3 5 -8 -10 -6 -34 -7 -75 -3 -5 1 -8 6
-8 12 0 8 4 8 14 0 11 -9 15 -7 19 9 6 23 27 27 27 5z m-862 -30 c-9 -9 -30
14 -23 25 6 9 10 8 17 -4 6 -10 8 -19 6 -21z m356 20 c-4 -8 -8 -15 -10 -15
-2 0 -4 7 -4 15 0 8 4 15 10 15 5 0 7 -7 4 -15z m251 5 c-3 -5 -11 -10 -16
-10 -6 0 -7 5 -4 10 3 6 11 10 16 10 6 0 7 -4 4 -10z m2227 -13 c5 -24 -5 -39
-34 -50 -15 -5 -18 -1 -18 27 0 37 6 46 31 46 9 0 19 -10 21 -23z m-2906 -22
c-11 -8 -25 -15 -30 -15 -6 0 -2 7 8 15 11 8 25 15 30 15 6 0 2 -7 -8 -15z
m-1290 -32 c-10 -10 -19 5 -10 18 6 11 8 11 12 0 2 -7 1 -15 -2 -18z m1609 -3
c-6 -9 -9 -9 -16 1 -10 17 0 34 13 21 6 -6 7 -16 3 -22z m1130 21 c3 -5 1 -12
-5 -16 -5 -3 -10 1 -10 9 0 18 6 21 15 7z m1750 -2 c11 -16 2 -17 -25 -2 -24
12 -24 13 -3 13 12 0 25 -5 28 -11z m710 -10 c-10 -15 -25 -10 -19 6 4 8 10
12 15 9 5 -3 7 -10 4 -15z m-2495 -13 c-1 -5 4 -12 12 -17 10 -6 10 -11 1 -20
-9 -9 -13 -6 -19 14 -3 15 -11 24 -17 20 -6 -3 -7 -1 -3 6 9 13 28 11 26 -3z
m-350 -16 c0 -5 -5 -10 -11 -10 -5 0 -7 5 -4 10 3 6 8 10 11 10 2 0 4 -4 4
-10z m316 -27 c-10 -10 -19 5 -10 18 6 11 8 11 12 0 2 -7 1 -15 -2 -18z m184
17 c0 -5 -4 -10 -10 -10 -5 0 -10 5 -10 10 0 6 5 10 10 10 6 0 10 -4 10 -10z
m-210 -20 c0 -5 -5 -10 -11 -10 -5 0 -7 5 -4 10 3 6 8 10 11 10 2 0 4 -4 4
-10z m2480 0 c0 -5 -4 -10 -10 -10 -5 0 -10 5 -10 10 0 6 5 10 10 10 6 0 10
-4 10 -10z m-1690 -46 c0 -8 -4 -12 -10 -9 -5 3 -10 10 -10 16 0 5 5 9 10 9 6
0 10 -7 10 -16z m-1970 2 c0 -3 -4 -8 -10 -11 -5 -3 -10 -1 -10 4 0 6 5 11 10
11 6 0 10 -2 10 -4z m-853 -38 c-3 -8 -6 -5 -6 6 -1 11 2 17 5 13 3 -3 4 -12
1 -19z m103 2 c0 -5 -4 -10 -10 -10 -5 0 -10 5 -10 10 0 6 5 10 10 10 6 0 10
-4 10 -10z m4530 -10 c0 -5 -2 -10 -4 -10 -3 0 -8 5 -11 10 -3 6 -1 10 4 10 6
0 11 -4 11 -10z m-8053 -6 c-3 -3 -12 -4 -19 -1 -8 3 -5 6 6 6 11 1 17 -2 13
-5z m3123 -39 c0 -5 -5 -3 -10 5 -5 8 -10 20 -10 25 0 6 5 3 10 -5 5 -8 10
-19 10 -25z m2886 -22 c-10 -10 -19 5 -10 18 6 11 8 11 12 0 2 -7 1 -15 -2
-18z m-256 -3 c0 -11 -7 -20 -15 -20 -17 0 -18 2 -9 24 9 23 24 20 24 -4z m90
-5 c0 -8 -4 -15 -10 -15 -5 0 -10 7 -10 15 0 8 5 15 10 15 6 0 10 -7 10 -15z
m-573 -17 c-3 -8 -6 -5 -6 6 -1 11 2 17 5 13 3 -3 4 -12 1 -19z m376 7 c-3 -9
-8 -14 -10 -11 -3 3 -2 9 2 15 9 16 15 13 8 -4z m47 5 c0 -5 -4 -10 -10 -10
-5 0 -10 5 -10 10 0 6 5 10 10 10 6 0 10 -4 10 -10z m91 -17 c2 -16 1 -46 -2
-68 -3 -22 -7 -32 -8 -23 0 9 -6 18 -11 20 -12 4 -2 98 10 98 4 0 9 -12 11
-27z m101 -55 l-20 -42 1 37 c1 23 6 37 14 37 7 0 14 12 14 28 1 22 2 23 6 5
2 -12 -5 -41 -15 -65z m-571 25 c-9 -15 -10 -12 -10 17 0 29 1 32 10 18 7 -12
7 -24 0 -35z m1034 38 c3 -5 1 -12 -5 -16 -5 -3 -10 1 -10 9 0 18 6 21 15 7z
m1625 -6 c0 -8 -4 -15 -10 -15 -5 0 -10 7 -10 15 0 8 5 15 10 15 6 0 10 -7 10
-15z m-2490 1 c0 -3 -4 -8 -10 -11 -5 -3 -10 -1 -10 4 0 6 5 11 10 11 6 0 10
-2 10 -4z m460 -20 c0 -14 -4 -28 -10 -31 -6 -4 -10 7 -10 24 0 17 5 31 10 31
6 0 10 -11 10 -24z m380 9 c0 -16 -30 -55 -42 -55 -5 0 -8 9 -8 21 0 11 4 18
9 14 5 -3 12 4 16 15 7 23 25 27 25 5z m-756 -27 c-1 -8 -4 -37 -8 -64 -6 -48
-6 -48 8 -19 l14 30 1 -28 c1 -41 21 -23 21 19 0 21 -4 33 -10 29 -5 -3 -10 3
-10 14 0 22 10 27 26 12 14 -15 5 -131 -11 -131 -18 0 -23 -18 -19 -60 4 -32
0 -29 -12 10 -5 13 -6 13 -14 0 -7 -11 -10 -2 -11 30 -1 40 -2 42 -8 15 l-7
-30 -5 32 c-3 18 -1 35 5 38 7 3 7 7 -1 11 -18 8 -16 20 8 43 24 22 19 57 -6
47 -10 -3 -15 1 -15 13 0 16 5 18 28 12 15 -5 26 -15 26 -23z m-384 2 c0 -5
-5 -10 -11 -10 -5 0 -7 5 -4 10 3 6 8 10 11 10 2 0 4 -4 4 -10z m900 0 c0 -5
-5 -10 -11 -10 -5 0 -7 5 -4 10 3 6 8 10 11 10 2 0 4 -4 4 -10z m-1240 -10 c0
-5 -4 -10 -10 -10 -5 0 -10 5 -10 10 0 6 5 10 10 10 6 0 10 -4 10 -10z m646
-3 c8 3 14 0 14 -6 0 -6 3 -10 8 -10 20 3 21 -3 3 -22 -11 -12 -24 -18 -30
-14 -6 3 -11 1 -11 -4 0 -6 -5 -11 -10 -11 -6 0 -8 10 -4 24 3 13 1 27 -5 31
-6 3 -8 11 -5 17 4 6 10 6 16 0 6 -6 17 -8 24 -5z m-536 -23 c0 -8 -4 -12 -10
-9 -5 3 -10 13 -10 21 0 8 5 12 10 9 6 -3 10 -13 10 -21z m2920 22 c0 -2 -7
-7 -16 -10 -8 -3 -12 -2 -9 4 6 10 25 14 25 6z m129 -36 c-9 -6 -17 -4 -22 6
-13 23 2 36 20 18 14 -13 14 -17 2 -24z m57 13 c18 -24 17 -30 -2 -37 -12 -5
-15 -2 -10 10 4 9 1 23 -5 30 -6 8 -8 14 -4 14 4 0 14 -8 21 -17z m-3847 -14
c-16 -10 -23 -4 -14 10 3 6 11 8 17 5 6 -4 5 -9 -3 -15z m914 1 c-3 -11 -12
-20 -19 -20 -18 0 -18 5 2 24 20 21 23 20 17 -4z m527 1 c0 -10 -7 -21 -15
-25 -15 -5 -22 24 -8 37 12 13 23 7 23 -12z m-809 -12 c11 -11 18 -24 14 -27
-3 -4 -10 0 -14 7 -5 7 -13 11 -18 8 -5 -3 -10 3 -10 14 -2 24 2 24 28 -2z
m469 5 c0 -8 -5 -12 -10 -9 -6 4 -8 11 -5 16 9 14 15 11 15 -7z m647 -16 c-3
-8 -6 -5 -6 6 -1 11 2 17 5 13 3 -3 4 -12 1 -19z m1946 14 c3 7 6 -4 6 -24 1
-21 5 -38 10 -38 5 0 7 8 5 18 -3 9 1 26 9 36 14 19 15 19 28 -5 15 -27 19
-69 7 -69 -4 0 -8 11 -8 24 0 14 -4 28 -10 31 -12 7 -12 4 -1 -52 5 -26 4 -44
-1 -45 -6 -2 -11 -15 -11 -30 -1 -14 -5 -24 -9 -22 -4 3 -7 -15 -5 -40 1 -24
-1 -42 -5 -40 -5 3 -8 14 -8 24 0 24 -10 50 -20 50 -4 0 -7 -16 -6 -36 1 -22
-4 -39 -12 -41 -9 -4 -11 5 -6 35 6 41 -18 102 -41 102 -5 0 -10 19 -10 43 0
28 4 41 13 40 6 -2 12 4 12 12 0 8 5 15 11 15 6 0 9 -9 6 -20 -3 -11 -2 -20 3
-20 12 0 20 28 13 48 -6 14 -4 15 9 4 13 -10 17 -10 21 0z m-3266 -24 c-3 -8
-6 -5 -6 6 -1 11 2 17 5 13 3 -3 4 -12 1 -19z m364 2 c11 0 17 -5 14 -10 -3
-6 1 -17 9 -26 9 -8 16 -21 16 -27 0 -7 -5 -4 -11 6 -6 9 -14 15 -20 12 -5 -4
-9 3 -9 14 0 12 -5 20 -12 19 -6 -2 -13 6 -15 17 -1 11 0 14 3 8 3 -7 15 -13
25 -13z m169 -4 c0 -8 -4 -18 -10 -21 -5 -3 -10 3 -10 14 0 12 5 21 10 21 6 0
10 -6 10 -14z m42 -18 c-8 -8 -9 -4 -5 13 4 13 8 18 11 10 2 -7 -1 -18 -6 -23z
m2818 12 c18 -18 19 -21 4 -27 -18 -7 -48 23 -38 38 8 13 12 11 34 -11z m66
-28 c-11 -10 -15 4 -8 28 l7 25 3 -23 c2 -13 1 -26 -2 -30z m-4956 28 c0 -5
-5 -10 -11 -10 -5 0 -7 5 -4 10 3 6 8 10 11 10 2 0 4 -4 4 -10z m2590 0 c0 -5
-4 -10 -10 -10 -5 0 -10 5 -10 10 0 6 5 10 10 10 6 0 10 -4 10 -10z m150 0 c0
-5 -5 -10 -11 -10 -5 0 -7 5 -4 10 3 6 8 10 11 10 2 0 4 -4 4 -10z m2200 0 c0
-5 -4 -10 -10 -10 -5 0 -10 5 -10 10 0 6 5 10 10 10 6 0 10 -4 10 -10z m-2966
-8 c6 -10 -22 -47 -30 -40 -3 4 -3 16 1 27 6 21 20 27 29 13z m3052 -19 c-10
-10 -19 5 -10 18 6 11 8 11 12 0 2 -7 1 -15 -2 -18z m-2879 -15 c-3 -7 -5 -2
-5 12 0 14 2 19 5 13 2 -7 2 -19 0 -25z m-304 -19 c-8 -29 -13 -23 -13 14 0
22 3 28 9 18 5 -7 6 -22 4 -32z m200 21 c-3 -12 -8 -19 -11 -16 -5 6 5 36 12
36 2 0 2 -9 -1 -20z m-31 -12 c-7 -7 -12 -8 -12 -2 0 14 12 26 19 19 2 -3 -1
-11 -7 -17z m-1832 -18 c0 -13 -5 -18 -15 -14 -16 7 -19 17 -8 27 12 13 23 7
23 -13z m2189 -17 c0 -16 -4 -37 -8 -48 -7 -17 -9 -14 -13 15 -3 19 -3 41 -1
48 9 22 23 13 22 -15z m2023 5 c-7 -7 -12 -8 -12 -2 0 14 12 26 19 19 2 -3 -1
-11 -7 -17z m63 2 c-4 -13 -1 -22 9 -26 9 -3 16 -16 16 -28 0 -19 -2 -19 -25
8 -25 29 -31 47 -18 59 13 14 24 6 18 -13z m-4665 0 c0 -5 -5 -10 -11 -10 -5
0 -7 5 -4 10 3 6 8 10 11 10 2 0 4 -4 4 -10z m2235 0 c3 -5 1 -10 -4 -10 -6 0
-11 5 -11 10 0 6 2 10 4 10 3 0 8 -4 11 -10z m217 -19 c-5 -3 -12 -15 -15 -26
-4 -18 -5 -18 -6 3 -1 25 21 57 28 40 2 -6 -1 -13 -7 -17z m418 19 c0 -5 -2
-10 -4 -10 -3 0 -8 5 -11 10 -3 6 -1 10 4 10 6 0 11 -4 11 -10z m-589 -14 c15
9 10 -2 -6 -16 -13 -10 -15 -9 -14 11 0 13 3 18 6 11 2 -6 9 -10 14 -6z m410
-11 c5 4 9 -1 9 -9 0 -9 -7 -16 -15 -16 -10 0 -15 9 -14 28 1 17 3 20 6 9 2
-9 9 -15 14 -12z m2418 12 c-2 -1 -15 -11 -28 -22 l-24 -20 12 23 c6 12 19 22
28 22 9 0 14 -1 12 -3z m-2341 -30 c2 -12 -1 -15 -12 -11 -19 7 -22 38 -3 32
6 -3 13 -12 15 -21z m1978 -24 c-10 -10 -19 5 -10 18 6 11 8 11 12 0 2 -7 1
-15 -2 -18z m113 -30 c1 -7 -3 -13 -9 -13 -5 0 -10 15 -9 33 0 27 2 29 9 12 5
-11 9 -26 9 -32z m58 15 c-3 -8 -6 -5 -6 6 -1 11 2 17 5 13 3 -3 4 -12 1 -19z
m-2972 -17 c-3 -6 -11 -11 -17 -11 -6 0 -6 6 2 15 14 17 26 13 15 -4z m3107
10 c7 10 8 6 4 -12 -3 -15 1 -34 10 -47 13 -20 13 -21 -1 -16 -8 3 -15 10 -15
16 0 5 -4 7 -9 4 -4 -3 -6 6 -3 19 2 15 0 25 -7 25 -7 0 -9 5 -5 12 6 9 9 9
12 -1 4 -11 6 -11 14 0z m104 -28 c-10 -10 -19 5 -10 18 6 11 8 11 12 0 2 -7
1 -15 -2 -18z m-4686 -3 c0 -5 -4 -10 -10 -10 -5 0 -10 5 -10 10 0 6 5 10 10
10 6 0 10 -4 10 -10z m1327 -22 c-3 -8 -6 -5 -6 6 -1 11 2 17 5 13 3 -3 4 -12
1 -19z m-1257 -2 c0 -3 -4 -8 -10 -11 -5 -3 -10 -1 -10 4 0 6 5 11 10 11 6 0
10 -2 10 -4z m1107 -28 c-3 -7 -5 -2 -5 12 0 14 2 19 5 13 2 -7 2 -19 0 -25z
m3123 16 c0 -8 -5 -12 -10 -9 -6 4 -8 11 -5 16 9 14 15 11 15 -7z m-3033 -26
c-3 -8 -6 -5 -6 6 -1 11 2 17 5 13 3 -3 4 -12 1 -19z m232 3 c8 -14 7 -20 -4
-25 -8 -3 -15 -1 -15 3 0 5 -3 16 -6 25 -9 23 13 20 25 -3z m2826 10 c3 -5 1
-12 -5 -16 -5 -3 -10 1 -10 9 0 18 6 21 15 7z m-6631 -16 c-4 -8 -10 -12 -15
-9 -5 3 -9 0 -9 -7 0 -7 -3 -10 -6 -6 -11 10 4 37 20 37 10 0 13 -6 10 -15z
m4198 -7 c-7 -7 -12 -8 -12 -2 0 14 12 26 19 19 2 -3 -1 -11 -7 -17z m2758 18
c0 -11 -19 -15 -25 -6 -3 5 1 10 9 10 9 0 16 -2 16 -4z m-4992 -49 c-8 -16 -8
-22 1 -25 18 -6 13 -21 -6 -16 -13 4 -18 15 -18 38 0 26 3 32 17 28 14 -3 16
-8 6 -25z m1002 23 c0 -5 -4 -10 -10 -10 -5 0 -10 5 -10 10 0 6 5 10 10 10 6
0 10 -4 10 -10z m413 -40 c6 -34 6 -34 -7 -11 -8 14 -12 31 -9 38 7 18 9 15
16 -27z m-3383 0 c0 -5 -2 -10 -4 -10 -3 0 -8 5 -11 10 -3 6 -1 10 4 10 6 0
11 -4 11 -10z m3807 -22 c-3 -8 -6 -5 -6 6 -1 11 2 17 5 13 3 -3 4 -12 1 -19z
m-1847 -28 c0 -5 -5 -10 -11 -10 -5 0 -7 5 -4 10 3 6 8 10 11 10 2 0 4 -4 4
-10z m-420 -30 c0 -5 -2 -10 -4 -10 -3 0 -8 5 -11 10 -3 6 -1 10 4 10 6 0 11
-4 11 -10z m420 6 c0 -3 -4 -8 -10 -11 -5 -3 -10 -1 -10 4 0 6 5 11 10 11 6 0
10 -2 10 -4z m1645 -16 c3 -5 1 -10 -4 -10 -6 0 -11 5 -11 10 0 6 2 10 4 10 3
0 8 -4 11 -10z m1585 -25 c0 -3 -9 -1 -20 5 -11 6 -18 15 -15 21 6 9 35 -12
35 -26z m-923 19 c-3 -3 -12 -4 -19 -1 -8 3 -5 6 6 6 11 1 17 -2 13 -5z m-490
-36 c-3 -7 -5 -2 -5 12 0 14 2 19 5 13 2 -7 2 -19 0 -25z m433 22 c0 -5 -2
-10 -4 -10 -3 0 -8 5 -11 10 -3 6 -1 10 4 10 6 0 11 -4 11 -10z m-2753 -22
c-3 -8 -6 -5 -6 6 -1 11 2 17 5 13 3 -3 4 -12 1 -19z m2293 2 c0 -11 -4 -20
-10 -20 -5 0 -10 9 -10 20 0 11 5 20 10 20 6 0 10 -9 10 -20z m-790 0 c0 -15
-37 -17 -61 -4 -23 12 -22 13 19 12 23 0 42 -4 42 -8z m718 -20 c-1 -16 -5
-30 -10 -30 -4 0 -8 3 -8 8 0 4 -3 17 -6 30 -5 16 -2 22 9 22 11 0 15 -9 15
-30z m479 8 c-3 -8 -6 -5 -6 6 -1 11 2 17 5 13 3 -3 4 -12 1 -19z m-1180 -25
c-3 -10 -5 -4 -5 12 0 17 2 24 5 18 2 -7 2 -21 0 -30z m1215 -5 c-6 -6 -7 0
-4 19 5 21 7 23 10 9 2 -10 0 -22 -6 -28z m175 20 c-3 -8 -6 -5 -6 6 -1 11 2
17 5 13 3 -3 4 -12 1 -19z m-2313 3 c3 -5 -1 -11 -9 -14 -9 -4 -12 -1 -8 9 6
16 10 17 17 5z m636 5 c0 -3 -4 -8 -10 -11 -5 -3 -10 -1 -10 4 0 6 5 11 10 11
6 0 10 -2 10 -4z m335 -15 c-8 -14 -35 -14 -35 -1 0 5 7 7 15 4 8 -4 15 -1 15
7 0 7 3 10 6 6 3 -3 3 -10 -1 -16z m1115 -1 c0 -11 -2 -20 -4 -20 -2 0 -6 9
-9 20 -3 11 -1 20 4 20 5 0 9 -9 9 -20z m-87 -12 c6 -22 6 -22 -8 -4 -14 19
-15 19 -15 1 0 -10 -3 -16 -6 -12 -9 8 3 37 15 37 5 0 11 -10 14 -22z m367 -3
c0 -9 -6 -12 -15 -9 -8 4 -12 10 -9 15 8 14 24 10 24 -6z m230 -12 c0 -13 -3
-13 -15 -3 -8 7 -15 16 -15 21 0 5 7 6 15 3 8 -4 15 -13 15 -21z m-4590 13 c0
-3 -4 -8 -10 -11 -5 -3 -10 -1 -10 4 0 6 5 11 10 11 6 0 10 -2 10 -4z m687
-48 c-3 -7 -5 -2 -5 12 0 14 2 19 5 13 2 -7 2 -19 0 -25z m3533 28 c0 -3 -4
-8 -10 -11 -5 -3 -10 -1 -10 4 0 6 5 11 10 11 6 0 10 -2 10 -4z m346 -19 c8 3
14 0 14 -7 0 -7 7 -10 15 -6 11 4 15 -1 15 -17 0 -18 -2 -19 -10 -7 -5 8 -10
11 -10 5 0 -5 -4 -4 -9 4 -8 13 -12 13 -27 0 -16 -12 -17 -12 -11 3 3 10 2 20
-4 23 -5 4 -6 12 -2 18 5 8 9 7 11 -5 2 -10 9 -15 18 -11z m515 8 l34 -15 -34
2 c-19 2 -36 9 -39 16 -5 15 -1 15 39 -3z m-1293 -20 c-3 -3 -9 2 -12 12 -6
14 -5 15 5 6 7 -7 10 -15 7 -18z m-1784 6 c3 -5 -1 -11 -9 -15 -9 -3 -15 0
-15 9 0 16 16 20 24 6z m626 -1 c0 -5 -5 -10 -11 -10 -5 0 -7 5 -4 10 3 6 8
10 11 10 2 0 4 -4 4 -10z m280 -37 c-1 -24 -2 -26 -11 -10 -5 9 -7 22 -4 27
10 17 15 11 15 -17z m1570 17 c0 -5 -5 -10 -11 -10 -5 0 -7 5 -4 10 3 6 8 10
11 10 2 0 4 -4 4 -10z m42 -12 c-7 -7 -12 -8 -12 -2 0 14 12 26 19 19 2 -3 -1
-11 -7 -17z m-7037 2 c3 -5 1 -10 -4 -10 -6 0 -11 5 -11 10 0 6 2 10 4 10 3 0
8 -4 11 -10z m3891 -17 c-10 -10 -19 5 -10 18 6 11 8 11 12 0 2 -7 1 -15 -2
-18z m1494 17 c0 -5 -5 -10 -11 -10 -5 0 -7 5 -4 10 3 6 8 10 11 10 2 0 4 -4
4 -10z m-5313 -32 c-3 -7 -5 -2 -5 12 0 14 2 19 5 13 2 -7 2 -19 0 -25z m6560
0 c-3 -7 -5 -2 -5 12 0 14 2 19 5 13 2 -7 2 -19 0 -25z m-214 -6 c-3 -12 -9
-22 -14 -22 -12 0 -11 7 3 30 15 24 19 21 11 -8z m257 8 c-8 -5 -17 -7 -19 -4
-3 3 1 9 9 14 8 5 17 7 19 4 3 -3 -1 -9 -9 -14z m-4945 0 c3 -5 1 -10 -4 -10
-6 0 -11 5 -11 10 0 6 2 10 4 10 3 0 8 -4 11 -10z m3345 -17 c0 -10 -4 -25
-10 -33 -8 -12 -10 -12 -16 3 -7 20 1 47 16 47 5 0 10 -8 10 -17z m1190 7 c0
-5 -4 -10 -10 -10 -5 0 -10 5 -10 10 0 6 5 10 10 10 6 0 10 -4 10 -10z m683
-11 c9 7 13 1 14 -21 l2 -30 -19 25 c-11 14 -19 31 -19 39 1 7 3 5 6 -5 3 -12
8 -15 16 -8z m-66 -21 c-3 -7 -5 -2 -5 12 0 14 2 19 5 13 2 -7 2 -19 0 -25z
m130 18 c-3 -8 -1 -16 5 -18 13 -5 2 -28 -12 -28 -16 0 -23 42 -9 51 19 12 22
11 16 -5z m54 -19 c-8 -8 -11 -7 -11 4 0 9 3 19 7 23 4 4 9 2 11 -4 3 -7 -1
-17 -7 -23z m1089 24 c0 -12 -29 -35 -36 -28 -7 6 17 36 29 37 4 0 7 -4 7 -9z
m-4070 -11 c0 -5 -4 -10 -10 -10 -5 0 -10 5 -10 10 0 6 5 10 10 10 6 0 10 -4
10 -10z m131 -13 c-10 -9 -11 -8 -5 6 3 10 9 15 12 12 3 -3 0 -11 -7 -18z
m2641 8 c4 -5 7 -21 7 -35 l-1 -25 -8 25 c-7 22 -8 22 -10 5 -1 -11 -2 -29 -1
-40 2 -17 0 -17 -8 -5 -6 8 -11 27 -11 43 0 15 -6 27 -12 27 -9 0 -8 3 2 9 17
11 32 10 42 -4z m-6772 -10 c7 -9 8 -15 2 -15 -5 0 -12 7 -16 15 -3 8 -4 15
-2 15 2 0 9 -7 16 -15z m5197 -27 c-3 -7 -5 -2 -5 12 0 14 2 19 5 13 2 -7 2
-19 0 -25z m2093 22 c0 -5 -2 -10 -4 -10 -3 0 -8 5 -11 10 -3 6 -1 10 4 10 6
0 11 -4 11 -10z m-2140 -14 c0 -8 -4 -18 -10 -21 -5 -3 -10 3 -10 14 0 12 5
21 10 21 6 0 10 -6 10 -14z m1186 -3 c11 -16 13 -17 19 -2 8 20 41 14 50 -9 6
-15 -10 -32 -30 -32 -5 0 -4 4 4 9 10 6 10 10 1 16 -13 8 -12 8 -29 -20 -11
-17 -12 -17 -7 -1 5 13 2 17 -8 13 -9 -4 -16 3 -19 19 -5 28 1 31 19 7z m501
-5 c-3 -8 -6 -5 -6 6 -1 11 2 17 5 13 3 -3 4 -12 1 -19z m153 2 c0 -5 -2 -10
-4 -10 -3 0 -8 5 -11 10 -3 6 -1 10 4 10 6 0 11 -4 11 -10z m1830 0 c0 -13
-48 -36 -56 -27 -4 3 -4 13 -1 22 7 17 57 21 57 5z m-7537 -20 c3 -11 1 -18
-4 -14 -5 3 -9 12 -9 20 0 20 7 17 13 -6z m3567 -5 c14 -19 14 -19 -2 -6 -10
7 -18 18 -18 24 0 6 1 8 3 6 1 -2 9 -13 17 -24z m-4812 -4 c3 -8 -1 -12 -9 -9
-7 2 -15 10 -17 17 -3 8 1 12 9 9 7 -2 15 -10 17 -17z m3672 -7 c0 -8 -4 -12
-10 -9 -5 3 -10 13 -10 21 0 8 5 12 10 9 6 -3 10 -13 10 -21z m17 4 c-3 -8 -6
-5 -6 6 -1 11 2 17 5 13 3 -3 4 -12 1 -19z m3093 13 c0 -6 -4 -13 -10 -16 -5
-3 -10 1 -10 9 0 9 5 16 10 16 6 0 10 -4 10 -9z m-900 -11 c0 -5 -2 -10 -4
-10 -3 0 -8 5 -11 10 -3 6 -1 10 4 10 6 0 11 -4 11 -10z m1090 -31 c0 -4 -9
-5 -20 -2 -23 6 -22 5 -13 29 6 16 7 16 20 -2 7 -10 13 -21 13 -25z m-725 22
c3 -5 1 -12 -5 -16 -5 -3 -10 1 -10 9 0 18 6 21 15 7z m579 -31 c-4 -22 -2
-46 3 -52 15 -20 16 -101 2 -96 -12 4 -16 17 -23 68 -2 14 -6 32 -9 40 -12 34
-15 60 -6 60 5 0 9 -5 9 -11 0 -5 5 -7 11 -4 6 4 8 13 5 21 -3 8 -1 14 4 14 6
0 8 -16 4 -40z m313 17 c13 5 14 3 4 -16 -7 -13 -17 -19 -24 -15 -7 4 -4 -1 5
-12 12 -13 14 -24 8 -34 -8 -13 -10 -13 -10 1 0 9 -7 19 -15 23 -8 3 -15 13
-15 21 0 9 -4 13 -10 10 -5 -3 -10 -1 -10 5 0 7 8 9 20 5 15 -5 20 -2 21 12 0
10 3 13 5 6 3 -7 12 -9 21 -6z m-5737 -1 c0 -3 -4 -8 -10 -11 -5 -3 -10 -1
-10 4 0 6 5 11 10 11 6 0 10 -2 10 -4z m1030 0 c0 -3 -4 -8 -10 -11 -5 -3 -10
-1 -10 4 0 6 5 11 10 11 6 0 10 -2 10 -4z m3345 -6 c3 -5 -1 -10 -10 -10 -9 0
-13 5 -10 10 3 6 8 10 10 10 2 0 7 -4 10 -10z m-5755 -22 c0 -5 -9 -4 -20 2
-11 6 -20 12 -20 14 0 2 9 2 20 -1 11 -3 20 -9 20 -15z m1000 18 c0 -3 -4 -8
-10 -11 -5 -3 -10 -1 -10 4 0 6 5 11 10 11 6 0 10 -2 10 -4z m5858 -52 c2 -29
-1 -54 -5 -57 -4 -3 -9 15 -9 39 -1 24 -6 50 -12 57 -8 9 -7 13 6 13 14 0 18
-11 20 -52z m2108 31 c-11 -8 -22 -12 -25 -9 -6 6 19 24 34 24 6 -1 1 -7 -9
-15z m-5083 -7 c-4 -7 -8 -16 -9 -20 -1 -5 -2 -11 -3 -15 0 -4 -6 -2 -13 5 -8
8 -8 15 2 27 15 18 35 20 23 3z m1793 -15 c-10 -10 -19 5 -10 18 6 11 8 11 12
0 2 -7 1 -15 -2 -18z m-1946 -3 c0 -5 -5 -10 -11 -10 -5 0 -7 5 -4 10 3 6 8
10 11 10 2 0 4 -4 4 -10z m607 -59 c-15 -6 -17 5 -10 40 l7 34 6 -35 c3 -19 1
-37 -3 -39z m1323 30 c-1 -13 -3 -13 -15 3 -19 26 -19 42 0 26 8 -7 15 -20 15
-29z m1400 -8 c0 -12 6 -23 12 -25 9 -3 8 -9 -4 -21 -21 -22 -28 -21 -26 1 1
9 0 31 -1 47 -2 25 -4 27 -10 11 -6 -15 -9 -17 -16 -6 -5 8 -1 18 10 27 22 15
35 3 35 -34z m2045 37 c-3 -5 -13 -10 -21 -10 -8 0 -12 5 -9 10 3 6 13 10 21
10 8 0 12 -4 9 -10z m-4305 -21 c0 -5 5 -7 10 -4 6 4 10 -6 10 -24 0 -16 -4
-32 -9 -36 -5 -3 -7 -20 -4 -39 6 -36 -13 -59 -28 -35 -7 11 -9 10 -9 -3 0
-10 -4 -18 -10 -18 -12 0 -6 55 8 73 7 8 7 18 2 27 -13 21 -12 43 1 34 8 -4 9
0 4 15 -5 15 -2 21 9 21 9 0 16 -5 16 -11z m906 -14 c-8 -8 -18 -15 -22 -15
-3 0 -1 7 6 15 7 8 17 15 22 15 5 0 3 -7 -6 -15z m414 5 c0 -5 -5 -10 -11 -10
-5 0 -7 5 -4 10 3 6 8 10 11 10 2 0 4 -4 4 -10z m-376 -15 c-4 -8 -8 -15 -10
-15 -2 0 -4 7 -4 15 0 8 4 15 10 15 5 0 7 -7 4 -15z m416 -7 c0 -13 -23 -5
-28 10 -2 7 2 10 12 6 9 -3 16 -11 16 -16z m360 12 c0 -5 -2 -10 -4 -10 -3 0
-8 5 -11 10 -3 6 -1 10 4 10 6 0 11 -4 11 -10z m630 0 c0 -5 -4 -10 -10 -10
-5 0 -10 5 -10 10 0 6 5 10 10 10 6 0 10 -4 10 -10z m1680 6 c0 -2 -7 -7 -16
-10 -8 -3 -12 -2 -9 4 6 10 25 14 25 6z m-4133 -28 c-3 -8 -6 -5 -6 6 -1 11 2
17 5 13 3 -3 4 -12 1 -19z m3713 12 c0 -5 -5 -10 -11 -10 -5 0 -7 5 -4 10 3 6
8 10 11 10 2 0 4 -4 4 -10z m-2740 -26 c0 -14 4 -23 10 -19 6 3 10 2 10 -4 0
-11 -19 -25 -26 -19 -11 12 -16 68 -5 68 6 0 11 -12 11 -26z m-1033 -16 c-3
-8 -6 -5 -6 6 -1 11 2 17 5 13 3 -3 4 -12 1 -19z m1818 4 c-3 -3 -11 0 -18 7
-9 10 -8 11 6 5 10 -3 15 -9 12 -12z m-1558 -14 c-3 -8 -6 -5 -6 6 -1 11 2 17
5 13 3 -3 4 -12 1 -19z m723 1 c0 -5 -7 -9 -15 -9 -15 0 -20 12 -9 23 8 8 24
-1 24 -14z m802 -33 c-3 -5 -9 -1 -13 10 -5 11 -8 13 -8 5 -1 -8 -4 -11 -7 -8
-4 4 -1 14 7 23 12 15 14 14 20 -3 3 -10 4 -22 1 -27z m192 28 c5 -13 3 -14
-6 -7 -7 6 -20 13 -28 16 -10 4 -8 6 6 6 12 1 25 -6 28 -15z m-132 -26 c-9 -9
-12 -7 -12 12 0 19 3 21 12 12 9 -9 9 -15 0 -24z m-952 10 c0 -7 -5 -20 -10
-28 -8 -12 -10 -9 -10 13 0 15 5 27 10 27 6 0 10 -6 10 -12z m279 -15 c9 -18
9 -23 -1 -23 -7 0 -14 12 -14 26 -2 28 -1 28 15 -3z m1181 17 c0 -5 -2 -10 -4
-10 -3 0 -8 5 -11 10 -3 6 -1 10 4 10 6 0 11 -4 11 -10z m-433 -37 c-3 -10 -5
-4 -5 12 0 17 2 24 5 18 2 -7 2 -21 0 -30z m99 4 c3 -23 -3 -21 -17 4 -8 17
-8 20 2 17 7 -2 13 -12 15 -21z m46 -2 c-2 -14 -8 -25 -13 -25 -5 0 -9 -7 -9
-17 0 -9 -3 -14 -6 -11 -10 10 8 78 21 78 8 0 10 -9 7 -25z m68 -9 c0 -46 -12
-86 -24 -79 -6 4 -18 8 -26 8 -8 0 -15 9 -15 20 0 15 6 19 23 17 12 -2 22 0
21 5 -1 4 -1 21 0 36 1 34 21 27 21 -7z m50 19 c0 -8 -7 -15 -16 -15 -14 0
-14 3 -4 15 7 8 14 15 16 15 2 0 4 -7 4 -15z m-1183 -17 c-3 -8 -6 -5 -6 6 -1
11 2 17 5 13 3 -3 4 -12 1 -19z m1384 9 c-1 -12 -15 -9 -19 4 -3 6 1 10 8 8 6
-3 11 -8 11 -12z m-6451 -1 c0 -3 -4 -8 -10 -11 -5 -3 -10 -1 -10 4 0 6 5 11
10 11 6 0 10 -2 10 -4z m3980 -6 c0 -5 -5 -10 -11 -10 -5 0 -7 5 -4 10 3 6 8
10 11 10 2 0 4 -4 4 -10z m916 -2 c5 -8 2 -9 -9 -5 -9 3 -19 2 -22 -3 -10 -16
-25 -11 -19 5 7 18 40 20 50 3z m1001 -5 c2 -6 -3 -13 -12 -16 -10 -5 -15 0
-15 14 0 21 21 22 27 2z m263 7 c0 -5 -4 -10 -10 -10 -5 0 -10 5 -10 10 0 6 5
10 10 10 6 0 10 -4 10 -10z m-5586 -16 c9 -24 2 -26 -12 -4 -7 11 -8 20 -3 20
5 0 12 -7 15 -16z m2393 -21 c-3 -10 -5 -4 -5 12 0 17 2 24 5 18 2 -7 2 -21 0
-30z m5593 27 c0 -5 -2 -10 -4 -10 -3 0 -8 5 -11 10 -3 6 -1 10 4 10 6 0 11
-4 11 -10z m-3250 -21 c0 -6 -4 -7 -10 -4 -5 3 -10 11 -10 16 0 6 5 7 10 4 6
-3 10 -11 10 -16z m-2008 -31 c-6 -6 -7 0 -4 19 5 21 7 23 10 9 2 -10 0 -22
-6 -28z m2492 4 c6 -23 17 -34 35 -38 14 -4 32 -13 39 -22 11 -14 12 -14 12 2
0 16 2 16 15 2 12 -12 13 -20 5 -35 -5 -11 -10 -32 -10 -47 l0 -27 -23 21
c-30 29 -67 29 -67 1 0 -16 -5 -20 -27 -17 -20 2 -28 9 -28 23 0 17 -6 20 -40
19 -74 -2 -135 -14 -206 -37 -69 -23 -69 -24 -49 -2 34 36 26 49 -25 46 -14
-1 -9 5 15 18 52 28 176 60 247 63 l63 3 0 33 c0 44 30 40 44 -6z m-999 9 c3
-5 1 -12 -5 -16 -5 -3 -10 1 -10 9 0 18 6 21 15 7z m455 -6 c7 -8 8 -15 2 -15
-5 0 -15 7 -22 15 -7 8 -8 15 -2 15 5 0 15 -7 22 -15z m761 -16 c-9 -22 -10
-22 -10 -3 -1 11 2 24 6 27 12 12 14 0 4 -24z m-5991 18 c0 -2 -10 -12 -21
-23 -22 -19 -22 -19 -8 4 12 19 29 30 29 19z m5350 -13 c0 -8 -4 -12 -10 -9
-5 3 -10 10 -10 16 0 5 5 9 10 9 6 0 10 -7 10 -16z m929 -21 c-1 -22 -3 -30
-6 -18 -3 11 -9 25 -14 32 -9 10 -4 15 19 22 1 1 1 -16 1 -36z m2231 27 c0 -5
-13 -10 -30 -10 -16 0 -30 5 -30 10 0 6 14 10 30 10 17 0 30 -4 30 -10z
m-3680 -33 c0 -4 -6 -2 -14 5 -8 7 -12 17 -9 22 5 8 23 -12 23 -27z m-410 6
c0 -5 -5 -15 -10 -23 -8 -12 -10 -11 -10 8 0 12 5 22 10 22 6 0 10 -3 10 -7z
m730 3 c0 -3 -4 -8 -10 -11 -5 -3 -10 -1 -10 4 0 6 5 11 10 11 6 0 10 -2 10
-4z m-1970 -21 c0 -8 -4 -15 -10 -15 -5 0 -7 7 -4 15 4 8 8 15 10 15 2 0 4 -7
4 -15z m140 -6 c0 -6 -4 -7 -10 -4 -5 3 -10 11 -10 16 0 6 5 7 10 4 6 -3 10
-11 10 -16z m2993 1 c3 -11 1 -20 -4 -20 -5 0 -9 9 -9 20 0 11 2 20 4 20 2 0
6 -9 9 -20z m47 1 c0 -9 -5 -23 -10 -31 -8 -13 -10 -13 -10 2 0 9 -2 23 -5 31
-4 8 0 14 10 14 8 0 15 -7 15 -16z m-6391 -12 c-22 -14 -33 -10 -19 6 7 8 17
12 22 9 6 -4 5 -10 -3 -15z m3171 -12 c0 -5 -4 -5 -10 -2 -5 3 -10 14 -10 23
0 15 2 15 10 2 5 -8 10 -19 10 -23z m-3040 -27 c0 -22 -3 -40 -7 -40 -5 0 -8
18 -8 40 0 22 3 40 8 40 4 0 7 -18 7 -40z m4332 18 c-7 -7 -12 -8 -12 -2 0 14
12 26 19 19 2 -3 -1 -11 -7 -17z m1475 0 c-3 -8 -6 -5 -6 6 -1 11 2 17 5 13 3
-3 4 -12 1 -19z m567 13 c8 -12 -4 -41 -16 -41 -7 0 -6 5 1 13 8 10 7 17 -1
25 -9 9 -9 12 -1 12 7 0 14 -4 17 -9z m-1284 -5 c0 -3 -4 -8 -10 -11 -5 -3
-10 -1 -10 4 0 6 5 11 10 11 6 0 10 -2 10 -4z m877 -18 c-3 -8 -6 -5 -6 6 -1
11 2 17 5 13 3 -3 4 -12 1 -19z m-2950 -10 c-3 -8 -6 -5 -6 6 -1 11 2 17 5 13
3 -3 4 -12 1 -19z m1373 12 c0 -5 -5 -10 -11 -10 -5 0 -7 5 -4 10 3 6 8 10 11
10 2 0 4 -4 4 -10z m1555 0 c3 -5 2 -10 -4 -10 -5 0 -13 5 -16 10 -3 6 -2 10
4 10 5 0 13 -4 16 -10z m-6057 -30 c2 -22 -2 -30 -14 -30 -13 0 -14 3 -5 14 6
8 11 18 10 22 -2 11 0 24 4 24 1 0 4 -13 5 -30z m5347 8 c-10 -34 -24 -45 -34
-29 -5 7 -13 11 -19 7 -6 -4 -8 2 -5 14 6 23 19 26 26 8 3 -9 7 -7 12 5 11 25
28 21 20 -5z m-805 8 c0 -3 -4 -8 -10 -11 -5 -3 -10 -1 -10 4 0 6 5 11 10 11
6 0 10 -2 10 -4z m1445 -7 c11 -17 -1 -21 -15 -4 -8 9 -8 15 -2 15 6 0 14 -5
17 -11z m157 -41 c-5 -5 -9 5 -10 24 0 31 1 31 9 9 6 -14 6 -28 1 -33z m82 37
c-6 -16 -24 -21 -24 -7 0 11 11 22 21 22 5 0 6 -7 3 -15z m-1584 -16 c0 -6 -4
-7 -10 -4 -5 3 -10 11 -10 16 0 6 5 7 10 4 6 -3 10 -11 10 -16z m2500 17 c0
-3 -4 -8 -10 -11 -5 -3 -10 -1 -10 4 0 6 5 11 10 11 6 0 10 -2 10 -4z m-2247
-16 c7 0 8 -3 1 -10 -12 -12 -56 -1 -48 12 3 5 13 7 21 4 8 -3 20 -6 26 -6z
m527 -20 c-9 -18 -40 -40 -54 -40 -3 0 -6 7 -6 16 0 9 -5 12 -12 8 -7 -4 -10
-4 -6 0 3 4 10 8 15 8 4 0 19 9 32 19 28 22 45 16 31 -11z m620 21 c0 -4 -8
-17 -18 -29 l-19 -21 0 27 c0 20 6 28 19 29 10 1 18 -2 18 -6z m-1830 -22 c0
-11 -4 -17 -10 -14 -5 3 -10 13 -10 21 0 8 5 14 10 14 6 0 10 -9 10 -21z m610
9 c0 -7 -5 -20 -10 -28 -8 -12 -10 -9 -10 13 0 15 5 27 10 27 6 0 10 -6 10
-12z m-35 -41 c-6 -23 -9 -24 -21 -12 -17 17 -18 27 -2 43 17 17 30 -1 23 -31z
m1571 28 c15 -11 16 -15 4 -16 -8 -1 -19 -1 -24 0 -4 1 -14 -3 -21 -9 -9 -7
-16 -6 -24 4 -10 11 -8 17 6 25 25 14 36 14 59 -4z m-3761 -24 c-3 -6 -11 -11
-16 -11 -5 0 -4 6 3 14 14 16 24 13 13 -3z m2255 4 c0 -8 -4 -15 -10 -15 -5 0
-7 7 -4 15 4 8 8 15 10 15 2 0 4 -7 4 -15z m1210 6 c0 -6 -4 -13 -10 -16 -5
-3 -10 1 -10 9 0 9 5 16 10 16 6 0 10 -4 10 -9z m780 -6 c7 -9 8 -15 2 -15 -5
0 -12 7 -16 15 -3 8 -4 15 -2 15 2 0 9 -7 16 -15z m-702 -54 c-2 -15 -7 -17
-28 -9 -14 5 -20 12 -14 16 6 4 17 18 25 32 l14 25 3 -22 c2 -13 2 -31 0 -42z
m-6328 33 c0 -8 -4 -12 -10 -9 -5 3 -10 10 -10 16 0 5 5 9 10 9 6 0 10 -7 10
-16z m-30 -10 c0 -2 -7 -4 -15 -4 -8 0 -15 4 -15 10 0 5 7 7 15 4 8 -4 15 -8
15 -10z m6450 5 c0 -6 -25 -19 -36 -19 -2 0 -4 6 -4 13 0 7 9 13 20 13 11 0
20 -3 20 -7z m-6205 -10 c11 -16 1 -19 -13 -3 -7 8 -8 14 -3 14 5 0 13 -5 16
-11z m5345 7 c0 -2 -8 -10 -17 -17 -16 -13 -17 -12 -4 4 13 16 21 21 21 13z
m800 -16 c0 -11 -2 -20 -4 -20 -2 0 -6 9 -9 20 -3 11 -1 20 4 20 5 0 9 -9 9
-20z m-3577 -5 c4 -8 2 -17 -3 -20 -6 -4 -10 3 -10 14 0 25 6 27 13 6z m3828
-4 c-12 -8 -12 -12 2 -26 10 -9 17 -19 17 -23 0 -4 -10 3 -21 15 -21 21 -19
43 4 43 8 0 7 -4 -2 -9z m-1047 -66 c3 -26 1 -44 -3 -39 -11 12 -21 80 -14 88
10 10 13 2 17 -49z m-179 -7 c5 -17 3 -28 -3 -28 -6 0 -10 8 -10 18 0 9 -3 26
-7 37 -6 14 -5 17 3 10 6 -5 14 -22 17 -37z m-5465 0 c0 -4 -7 -8 -15 -8 -8 0
-15 4 -15 8 0 5 7 9 15 9 8 0 15 -4 15 -9z m1740 -18 c0 -5 -2 -10 -4 -10 -3
0 -8 5 -11 10 -3 6 -1 10 4 10 6 0 11 -4 11 -10z m4450 -6 c0 -8 -4 -12 -10
-9 -5 3 -10 10 -10 16 0 5 5 9 10 9 6 0 10 -7 10 -16z m615 -4 c3 -6 -1 -7 -9
-4 -18 7 -21 14 -7 14 6 0 13 -4 16 -10z m-7190 -10 c3 -5 -1 -10 -10 -10 -9
0 -13 5 -10 10 3 6 8 10 10 10 2 0 7 -4 10 -10z m152 4 c-3 -3 -12 -4 -19 -1
-8 3 -5 6 6 6 11 1 17 -2 13 -5z m5863 -26 c0 -5 -4 -8 -10 -8 -5 0 -10 10
-10 23 0 18 2 19 10 7 5 -8 10 -18 10 -22z m1220 12 c0 -5 -2 -10 -4 -10 -3 0
-8 5 -11 10 -3 6 -1 10 4 10 6 0 11 -4 11 -10z m-6400 -10 c0 -5 -5 -10 -11
-10 -5 0 -7 5 -4 10 3 6 8 10 11 10 2 0 4 -4 4 -10z m5091 -2 c7 -79 8 -80 45
-84 27 -3 54 15 54 35 0 5 4 13 10 16 7 4 7 -3 0 -20 -6 -15 -10 -41 -10 -59
0 -30 -2 -32 -32 -28 -23 2 -40 -3 -54 -16 -27 -25 -59 -35 -90 -28 -31 8 -32
39 -1 54 20 11 19 11 -10 6 -20 -3 -33 -1 -33 5 0 6 8 7 17 4 12 -5 15 -2 10
10 -5 14 -2 16 18 11 20 -5 23 -3 18 15 -3 12 -1 21 6 21 7 0 11 -6 10 -12 -1
-7 -1 -20 0 -28 1 -13 2 -13 11 0 8 13 10 13 10 1 0 -12 3 -12 12 -3 9 9 8 16
-4 29 -23 27 -30 54 -17 69 14 17 29 18 30 2z m1609 -33 c-7 -8 -17 -12 -22
-9 -6 4 -5 10 3 15 22 14 33 10 19 -6z m-5603 -17 c-3 -8 -6 -5 -6 6 -1 11 2
17 5 13 3 -3 4 -12 1 -19z m1514 -1 c-6 -8 -8 -16 -5 -20 3 -3 -3 -3 -15 0
-26 7 -27 20 -3 26 31 8 35 7 23 -6z m-3161 -23 c0 -2 -9 -4 -20 -4 -11 0 -20
4 -20 9 0 5 9 7 20 4 11 -3 20 -7 20 -9z m387 10 c-3 -3 -12 -4 -19 -1 -8 3
-5 6 6 6 11 1 17 -2 13 -5z m7438 -5 c11 -17 -1 -21 -15 -4 -8 9 -8 15 -2 15
6 0 14 -5 17 -11z m-1165 -33 c0 -4 -21 -3 -59 3 -3 1 4 7 14 15 16 11 21 11
32 0 7 -7 13 -15 13 -18z m1213 27 c-7 -2 -19 -2 -25 0 -7 3 -2 5 12 5 14 0
19 -2 13 -5z m-1286 -28 c-4 -8 -2 -17 4 -20 11 -7 3 -25 -12 -25 -5 0 -9 7
-9 16 0 8 -4 12 -10 9 -5 -3 -10 3 -10 14 0 15 6 21 21 21 14 0 19 -5 16 -15z
m-151 -31 c-3 -9 -9 -26 -12 -39 -5 -20 -9 -22 -36 -14 -17 4 -33 11 -36 13
-9 10 21 37 35 32 8 -3 11 -2 8 3 -5 8 11 16 39 20 4 0 5 -6 2 -15z m1594 6
c0 -5 -7 -10 -15 -10 -8 0 -15 5 -15 10 0 6 7 10 15 10 8 0 15 -4 15 -10z
m-1520 -26 c0 -2 -11 -4 -25 -4 -14 0 -25 4 -25 9 0 4 11 6 25 3 14 -2 25 -6
25 -8z m460 -38 c0 -11 -19 -15 -25 -6 -3 5 1 10 9 10 9 0 16 -2 16 -4z
m-5790 -25 c0 -5 -9 -7 -20 -4 -11 3 -20 7 -20 9 0 2 9 4 20 4 11 0 20 -4 20
-9z m924 -26 c-4 -8 -8 -15 -10 -15 -2 0 -4 7 -4 15 0 8 4 15 10 15 5 0 7 -7
4 -15z m5436 -21 c0 -12 -4 -13 -21 -3 -17 9 -19 13 -8 19 16 11 29 4 29 -16z
m-105 6 c-3 -5 -10 -10 -16 -10 -5 0 -9 5 -9 10 0 6 7 10 16 10 8 0 12 -4 9
-10z m955 0 c0 -5 -7 -10 -15 -10 -8 0 -15 5 -15 10 0 6 7 10 15 10 8 0 15 -4
15 -10z m-1380 -71 c0 -18 -2 -19 -15 -9 -8 7 -15 16 -15 21 0 5 7 9 15 9 9 0
15 -9 15 -21z m-6362 -47 c2 -7 -2 -10 -12 -6 -9 3 -16 11 -16 16 0 13 23 5
28 -10z m8509 12 c-3 -3 -12 -4 -19 -1 -8 3 -5 6 6 6 11 1 17 -2 13 -5z
m-8470 -20 c-3 -3 -12 -4 -19 -1 -8 3 -5 6 6 6 11 1 17 -2 13 -5z m6277 -10
c3 -8 2 -12 -4 -9 -6 3 -10 10 -10 16 0 14 7 11 14 -7z m-24 -4 c0 -5 -4 -10
-10 -10 -5 0 -10 5 -10 10 0 6 5 10 10 10 6 0 10 -4 10 -10z m1194 -6 c4 -9 4
-19 1 -22 -3 -3 -5 0 -5 7 0 8 -7 11 -15 7 -15 -5 -20 5 -8 17 11 11 21 8 27
-9z m241 -4 c10 -11 13 -20 7 -20 -6 0 -16 9 -22 20 -6 11 -9 20 -7 20 2 0 12
-9 22 -20z m-1607 -2 c8 -8 15 -8 24 0 10 8 19 5 36 -13 27 -28 21 -51 -8 -35
-10 5 -35 10 -54 10 -28 0 -36 4 -36 18 0 31 17 41 38 20z m139 -13 c-4 -8
-11 -15 -17 -15 -6 0 -6 7 2 20 14 22 24 19 15 -5z m653 -72 c0 -5 -16 -18
-34 -31 -30 -20 -38 -22 -58 -11 -23 12 -23 13 17 30 42 19 75 24 75 12z m49
-35 c-1 -22 -3 -26 -6 -13 -3 11 -10 26 -15 33 -8 9 -6 12 6 12 12 0 16 -9 15
-32z m-6249 -28 c0 -5 -2 -10 -4 -10 -3 0 -8 5 -11 10 -3 6 -1 10 4 10 6 0 11
-4 11 -10z m1110 -89 c0 -5 -9 -7 -20 -4 -11 3 -20 12 -20 20 0 11 4 11 20 3
11 -6 20 -15 20 -19z m5880 9 c0 -5 -2 -10 -4 -10 -3 0 -8 5 -11 10 -3 6 -1
10 4 10 6 0 11 -4 11 -10z m-445 -10 c3 -5 -1 -10 -10 -10 -9 0 -13 5 -10 10
3 6 8 10 10 10 2 0 7 -4 10 -10z m-5235 -20 c0 -5 -4 -10 -9 -10 -6 0 -13 5
-16 10 -3 6 1 10 9 10 9 0 16 -4 16 -10z m850 -51 c0 -6 -4 -7 -10 -4 -5 3
-10 11 -10 16 0 6 5 7 10 4 6 -3 10 -11 10 -16z m4280 11 c0 -5 -2 -10 -4 -10
-3 0 -8 5 -11 10 -3 6 -1 10 4 10 6 0 11 -4 11 -10z m-195 -16 c-9 -9 -18 -14
-21 -11 -9 9 6 27 22 27 13 0 13 -2 -1 -16z m75 6 c0 -5 -4 -10 -10 -10 -5 0
-10 5 -10 10 0 6 5 10 10 10 6 0 10 -4 10 -10z m288 -27 c-2 -21 -9 -29 -28
-32 -14 -1 -28 -8 -32 -15 -5 -7 -8 -6 -8 5 0 22 38 69 56 69 11 0 14 -8 12
-27z m-5911 -25 c-3 -7 -5 -2 -5 12 0 14 2 19 5 13 2 -7 2 -19 0 -25z m683
-69 c0 -6 -4 -7 -10 -4 -5 3 -10 11 -10 16 0 6 5 7 10 4 6 -3 10 -11 10 -16z
m5140 2 c0 -10 -7 -22 -16 -25 -8 -3 -12 -2 -9 3 3 5 1 12 -5 16 -13 8 -3 25
16 25 8 0 14 -9 14 -19z m-2673 3 c-3 -3 -12 -4 -19 -1 -8 3 -5 6 6 6 11 1 17
-2 13 -5z m-2407 -43 c-1 -14 -2 -14 -14 2 -7 9 -18 17 -25 17 -6 0 -11 4 -11
10 0 6 10 5 25 -2 14 -6 25 -18 25 -27z m-26 -19 c2 -4 -4 -9 -15 -9 -11 -1
-17 2 -14 8 7 11 22 12 29 1z m3456 -32 c8 -5 11 -10 5 -10 -5 0 -17 5 -25 10
-8 5 -10 10 -5 10 6 0 17 -5 25 -10z m2653 -17 c8 3 22 -2 31 -12 21 -23 21
-37 0 -20 -14 11 -18 10 -31 -6 -13 -19 -15 -19 -24 -3 -5 10 -16 15 -24 12
-20 -8 -19 5 2 28 12 13 19 15 24 7 4 -7 14 -9 22 -6z m-5715 -35 c19 -22 9
-24 -12 -2 -9 8 -16 23 -15 32 0 14 2 14 6 2 3 -8 12 -23 21 -32z m5868 33
c-4 -5 7 -20 23 -34 30 -25 26 -47 -8 -47 -14 0 -14 1 -1 10 9 6 10 10 3 10
-18 0 -34 -35 -26 -57 5 -14 3 -16 -7 -6 -7 6 -19 9 -26 6 -22 -8 -16 21 6 35
19 12 19 14 4 38 -16 23 -16 26 2 39 22 16 38 20 30 6z m-1706 -42 c0 -5 -4
-9 -10 -9 -5 0 -10 7 -10 16 0 8 5 12 10 9 6 -3 10 -10 10 -16z m1800 1 c0
-11 -4 -20 -10 -20 -5 0 -10 9 -10 20 0 11 5 20 10 20 6 0 10 -9 10 -20z
m-1655 0 c3 -5 1 -10 -4 -10 -6 0 -11 5 -11 10 0 6 2 10 4 10 3 0 8 -4 11 -10z
m95 0 c0 -5 -2 -10 -4 -10 -3 0 -8 5 -11 10 -3 6 -1 10 4 10 6 0 11 -4 11 -10z
m-2450 -20 c-8 -5 -17 -7 -19 -4 -3 3 1 9 9 14 8 5 17 7 19 4 3 -3 -1 -9 -9
-14z m24 -38 c-8 -18 -19 -30 -24 -27 -4 3 -13 -2 -20 -10 -7 -8 -17 -15 -23
-15 -6 0 9 19 34 43 24 24 45 43 47 42 1 -1 -5 -16 -14 -33z m2576 18 c0 -5
-7 -10 -15 -10 -8 0 -15 -4 -15 -8 0 -5 -7 -9 -15 -9 -20 0 -19 14 3 26 22 13
42 14 42 1z m-3394 -27 c-7 -7 -26 7 -26 19 0 6 6 6 15 -2 9 -7 13 -15 11 -17z
m4618 6 c-3 -5 -10 -7 -15 -3 -5 3 -7 10 -3 15 3 5 10 7 15 3 5 -3 7 -10 3
-15z m-1264 -64 c0 -16 -6 -25 -15 -25 -8 0 -15 9 -15 21 0 11 -4 18 -9 14 -5
-3 -12 -1 -16 5 -4 6 6 10 24 10 26 0 31 -4 31 -25z m-2850 6 c0 -6 -4 -13
-10 -16 -5 -3 -10 1 -10 9 0 9 5 16 10 16 6 0 10 -4 10 -9z m2984 -17 c7 -17
5 -17 -29 0 -17 9 -22 16 -13 18 18 7 35 -1 42 -18z m26 -45 c0 -5 -4 -9 -10
-9 -5 0 -10 7 -10 16 0 8 5 12 10 9 6 -3 10 -10 10 -16z m173 -32 c3 -8 -1
-14 -9 -14 -8 0 -14 6 -14 14 0 7 4 13 9 13 5 0 11 -6 14 -13z m-903 -7 c-20
-13 -40 -13 -40 0 0 6 12 10 28 10 21 0 24 -2 12 -10z m1910 -30 c9 -17 8 -20
-14 -20 -27 0 -41 14 -31 30 10 17 34 11 45 -10z m-840 -30 c0 -5 -5 -10 -11
-10 -5 0 -7 5 -4 10 3 6 8 10 11 10 2 0 4 -4 4 -10z m920 -18 c0 -4 -9 -8 -19
-8 -15 0 -17 3 -9 13 10 12 28 9 28 -5z m-2540 -49 c0 -13 -3 -13 -15 -3 -8 7
-15 16 -15 21 0 5 7 6 15 3 8 -4 15 -13 15 -21z m-29 -45 c18 -25 19 -32 8
-65 -7 -21 -17 -42 -21 -47 -14 -17 -9 -29 7 -16 12 10 15 10 15 -3 0 -8 6
-17 12 -19 10 -4 10 -10 1 -31 -7 -15 -17 -27 -23 -27 -6 0 -9 4 -6 9 3 5 -2
8 -11 7 -21 -1 -31 51 -32 168 -1 86 5 88 50 24z m486 -10 c-3 -8 -6 -5 -6 6
-1 11 2 17 5 13 3 -3 4 -12 1 -19z m1793 -78 c0 -5 -4 -10 -10 -10 -5 0 -10 5
-10 10 0 6 5 10 10 10 6 0 10 -4 10 -10z m-1400 -135 c-13 -14 -25 -23 -27
-21 -8 8 22 46 36 46 10 0 7 -8 -9 -25z m1190 15 c0 -5 -4 -10 -10 -10 -5 0
-10 5 -10 10 0 6 5 10 10 10 6 0 10 -4 10 -10z m-1010 -40 c0 -5 -7 -7 -15 -4
-8 4 -12 10 -9 15 6 11 24 2 24 -11z m-1070 -32 c0 -19 -2 -20 -10 -8 -13 19
-13 30 0 30 6 0 10 -10 10 -22z m2044 -3 c-7 -16 -24 -21 -24 -6 0 8 7 13 27
20 1 1 0 -6 -3 -14z m-604 -515 c0 -5 -4 -10 -10 -10 -5 0 -10 5 -10 10 0 6 5
10 10 10 6 0 10 -4 10 -10z m470 -55 c0 -8 7 -11 18 -9 9 3 50 -11 90 -30 76
-38 97 -63 40 -50 -18 4 -47 8 -64 9 -36 2 -57 13 -49 26 4 5 -3 9 -13 9 -13
0 -24 11 -31 31 -13 39 -14 42 -1 34 6 -3 10 -12 10 -20z m-35 -55 c3 -5 -1
-10 -9 -10 -8 0 -18 5 -21 10 -3 6 1 10 9 10 8 0 18 -4 21 -10z m-1716 -495
l0 -20 -9 20 c-5 11 -9 27 -9 35 -1 13 0 13 9 0 5 -8 9 -24 9 -35z m71 -21 c0
-6 -7 -17 -15 -24 -13 -11 -18 -10 -30 6 -20 26 -19 52 3 56 17 4 41 -18 42
-38z m-55 -44 c3 -5 1 -10 -4 -10 -6 0 -11 5 -11 10 0 6 2 10 4 10 3 0 8 -4
11 -10z m-1315 -254 c-12 -12 -15 -8 -25 24 -8 25 -8 25 14 6 14 -13 18 -23
11 -30z m237 -12 c-3 -3 -12 -4 -19 -1 -8 3 -5 6 6 6 11 1 17 -2 13 -5z m972
-147 c31 4 38 1 48 -22 11 -24 10 -26 -5 -19 -9 4 -33 9 -53 11 -21 3 -40 13
-48 25 -11 17 -10 19 5 10 10 -5 33 -8 53 -5z m31 -72 c0 -1 -12 -2 -26 -2
-17 0 -22 2 -13 7 10 7 39 3 39 -5z"/>
<path d="M6730 7213 c0 -25 1 -26 16 -11 9 9 13 21 10 27 -13 20 -26 11 -26
-16z"/>
<path d="M9244 5765 c19 -14 36 -12 36 6 0 5 -12 9 -27 9 -27 -1 -27 -1 -9
-15z"/>
<path d="M9291 5751 c-9 -16 -10 -26 -2 -34 13 -13 25 12 19 40 -3 16 -5 15
-17 -6z"/>
<path d="M9325 5761 c-3 -5 -1 -12 5 -16 5 -3 10 1 10 9 0 18 -6 21 -15 7z"/>
<path d="M6520 4686 c0 -9 5 -16 10 -16 6 0 10 4 10 9 0 6 -4 13 -10 16 -5 3
-10 -1 -10 -9z"/>
<path d="M5980 4330 c0 -5 5 -10 11 -10 5 0 7 5 4 10 -3 6 -8 10 -11 10 -2 0
-4 -4 -4 -10z"/>
<path d="M8877 2183 c-4 -3 -7 -11 -7 -17 0 -6 5 -5 12 2 6 6 9 14 7 17 -3 3
-9 2 -12 -2z"/>
<path d="M8030 8800 c-13 -8 -12 -10 3 -10 9 0 17 5 17 10 0 12 -1 12 -20 0z"/>
<path d="M7595 8129 c-10 -15 34 -59 51 -52 20 8 17 41 -5 53 -25 13 -38 13
-46 -1z"/>
<path d="M80 7810 c0 -6 -18 -10 -40 -10 l-40 0 0 -245 0 -245 40 0 c29 0 40
-4 40 -15 0 -11 11 -15 40 -15 29 0 40 4 40 15 0 18 -1 18 39 4 25 -9 38 -9
56 1 13 7 32 9 42 5 10 -4 48 -6 86 -5 42 1 67 -3 67 -9 0 -6 7 -11 15 -11 8
0 15 5 15 10 0 6 -5 10 -11 10 -5 0 -7 5 -3 11 5 8 9 8 14 -1 6 -10 18 -10 53
-1 56 14 107 14 107 1 0 -14 76 -12 100 2 16 10 24 10 40 0 14 -8 20 -9 20 -1
0 8 25 10 78 7 42 -3 60 -3 40 -1 -52 6 -48 20 7 25 29 2 46 -1 50 -9 7 -20
43 -15 55 7 6 11 20 20 32 20 12 0 30 7 40 17 15 13 18 13 18 2 0 -19 92 -48
98 -31 5 17 31 15 50 -4 14 -15 17 -15 29 2 12 16 15 17 24 4 8 -11 12 -12 16
-2 2 6 15 12 28 12 12 0 28 7 35 15 18 22 45 18 63 -7 21 -32 31 -16 19 32 -8
32 -7 40 4 40 8 0 14 -7 14 -15 0 -8 5 -15 10 -15 6 0 10 -11 10 -25 0 -38 15
-30 29 17 l13 41 24 -29 24 -29 24 28 c31 34 46 34 46 2 0 -32 13 -32 38 -1
16 21 27 25 70 24 37 -1 52 -6 54 -16 3 -14 5 -14 19 1 19 19 78 19 97 0 17
-16 146 -11 168 8 10 8 34 10 75 6 33 -4 58 -3 55 2 -3 4 10 23 29 41 30 29
35 31 35 14 0 -10 7 -27 14 -37 14 -18 15 -17 21 3 5 15 13 20 26 17 16 -4 18
-1 13 19 -5 18 -2 24 11 24 14 0 16 -7 13 -40 -2 -22 -1 -40 2 -40 3 0 15 18
27 39 15 26 19 41 11 43 -8 3 -6 14 5 38 10 18 13 36 8 39 -4 3 -11 16 -15 29
-4 12 -12 22 -17 22 -10 0 -11 -2 -14 -53 -3 -45 -19 -67 -37 -49 -9 9 -9 15
0 24 7 7 12 20 12 30 0 15 -8 18 -44 18 -26 0 -48 6 -56 15 -7 8 -23 15 -36
15 -15 0 -24 6 -24 15 0 8 -4 15 -10 15 -5 0 -10 -18 -10 -40 0 -29 -4 -40
-15 -40 -9 0 -18 7 -21 15 -4 8 -10 15 -15 15 -5 0 -9 -7 -9 -15 0 -11 -11
-15 -40 -15 -22 0 -40 -4 -40 -10 0 -5 -20 -10 -44 -10 -25 0 -48 5 -51 10 -4
6 13 10 44 10 44 0 51 3 51 20 0 17 -7 20 -40 20 -23 0 -40 5 -40 11 0 7 -8 9
-20 5 -11 -3 -29 -9 -40 -12 -16 -5 -20 -2 -20 17 0 21 -3 20 -40 -16 l-40
-39 0 27 c0 25 -3 27 -40 27 -32 0 -40 -4 -40 -18 0 -20 -74 -95 -84 -85 -3 4
-6 16 -6 27 0 17 2 18 10 6 9 -13 11 -13 20 0 20 31 12 50 -21 48 -36 -3 -65
26 -40 41 7 5 9 11 4 14 -6 4 -19 -3 -31 -13 -24 -22 -88 -27 -95 -7 -3 8 -10
6 -21 -8 l-16 -20 -16 20 c-11 14 -18 16 -21 8 -6 -15 -53 -18 -53 -3 0 6 -7
10 -15 10 -9 0 -15 9 -15 23 l-1 22 -18 -22 c-22 -27 -37 -29 -45 -7 -5 14 -7
14 -22 0 -24 -24 -78 -20 -98 7 l-16 22 -16 -22 c-9 -13 -25 -23 -36 -23 -15
0 -17 -3 -8 -19 15 -30 -7 -37 -32 -11 -13 14 -23 18 -27 11 -11 -17 -108 18
-119 43 -9 21 -9 21 -21 -2 -8 -15 -8 -22 -1 -22 6 0 8 -4 5 -10 -3 -5 -17
-10 -31 -10 -13 0 -24 5 -24 10 0 6 -11 10 -25 10 -14 0 -25 -4 -25 -10 0 -5
-18 -10 -39 -10 -36 0 -40 3 -43 27 -3 25 -4 26 -20 10 -18 -18 -58 -23 -58
-7 0 6 -18 10 -40 10 -35 0 -40 -3 -41 -22 0 -13 -3 -17 -6 -10 -2 6 -17 12
-33 12 -16 0 -31 -6 -33 -12 -3 -7 -6 -2 -6 12 -1 19 -4 21 -13 12 -18 -18
-38 -14 -38 8 0 18 -7 20 -55 20 -32 0 -55 4 -55 11 0 6 -35 9 -98 8 -69 -2
-103 2 -120 12 -26 16 -28 27 -7 35 8 4 15 10 15 14 0 4 -7 10 -15 14 -8 3
-15 1 -15 -4z m1300 -154 c0 -3 -4 -8 -10 -11 -5 -3 -10 -1 -10 4 0 6 5 11 10
11 6 0 10 -2 10 -4z m936 -56 c41 0 63 -4 59 -10 -3 -5 -17 -10 -31 -10 -17 0
-24 -5 -24 -20 0 -15 7 -20 24 -20 14 0 28 -4 31 -10 3 -5 1 -10 -4 -10 -6 0
-11 -6 -11 -14 0 -24 -21 -30 -27 -7 -4 17 -13 21 -49 21 l-44 0 1 53 c0 28 3
46 6 40 3 -9 27 -13 69 -13z m-1027 -202 c-1 -24 -4 -34 -6 -23 -3 11 -11 24
-19 28 -21 12 -17 37 6 37 17 0 20 -6 19 -42z m-89 -13 c0 -30 -11 -32 -33 -7
-19 21 -13 32 15 32 13 0 18 -7 18 -25z m-220 -16 c0 -5 -4 -9 -10 -9 -5 0
-10 7 -10 16 0 8 5 12 10 9 6 -3 10 -10 10 -16z m-165 1 c3 -5 1 -10 -4 -10
-6 0 -11 5 -11 10 0 6 2 10 4 10 3 0 8 -4 11 -10z"/>
<path d="M2306 7704 c-8 -20 -3 -27 18 -22 12 2 13 6 2 21 -13 16 -14 16 -20
1z"/>
<path d="M857 7703 c-12 -11 -8 -23 8 -23 8 0 15 7 15 15 0 16 -12 20 -23 8z"/>
<path d="M960 7696 c0 -9 7 -16 16 -16 17 0 14 22 -4 28 -7 2 -12 -3 -12 -12z"/>
<path d="M2794 7684 c3 -9 6 -18 6 -20 0 -2 18 -4 40 -4 22 0 40 5 40 10 0 6
-16 10 -35 10 -19 0 -35 5 -35 10 0 6 -5 10 -11 10 -6 0 -8 -7 -5 -16z"/>
<path d="M2480 7640 c0 -5 7 -10 15 -10 8 0 15 5 15 10 0 6 -7 10 -15 10 -8 0
-15 -4 -15 -10z"/>
<path d="M2618 7561 c-34 -32 -35 -41 -5 -41 27 0 47 17 47 41 0 28 -13 28
-42 0z"/>
<path d="M2785 7562 c-8 -22 -6 -42 5 -42 6 0 10 7 10 15 0 11 11 15 40 15 55
0 51 17 -5 22 -31 2 -46 -1 -50 -10z"/>
<path d="M3590 7560 c0 -5 7 -10 16 -10 8 0 12 5 9 10 -3 6 -10 10 -16 10 -5
0 -9 -4 -9 -10z"/>
<path d="M3180 7540 c0 -11 5 -20 10 -20 6 0 10 9 10 20 0 11 -4 20 -10 20 -5
0 -10 -9 -10 -20z"/>
<path d="M3440 7530 c0 -11 -10 -24 -21 -31 -17 -9 -19 -13 -8 -20 20 -13 29
-11 29 6 0 19 14 19 43 0 13 -8 32 -12 46 -8 28 7 9 23 -27 23 -15 0 -26 7
-29 19 -7 27 -33 36 -33 11z"/>
<path d="M3274 7515 c-3 -13 -4 -30 -1 -37 4 -8 6 -7 6 5 1 13 10 17 41 17 33
0 40 3 40 20 0 23 -10 26 -28 8 -9 -9 -15 -9 -24 0 -18 18 -27 15 -34 -13z"/>
<path d="M2720 7485 c0 -12 16 -15 80 -15 64 0 80 3 80 15 0 12 -16 15 -80 15
-64 0 -80 -3 -80 -15z"/>
<path d="M3040 7480 c0 -5 18 -10 40 -10 22 0 40 5 40 10 0 6 -18 10 -40 10
-22 0 -40 -4 -40 -10z"/>
<path d="M3220 7466 c0 -14 5 -26 10 -26 6 0 10 9 10 19 0 11 -4 23 -10 26 -6
4 -10 -5 -10 -19z"/>
<path d="M2300 7410 c-13 -8 -12 -10 3 -10 9 0 17 5 17 10 0 12 -1 12 -20 0z"/>
<path d="M1905 7370 c-3 -5 -1 -10 4 -10 6 0 11 5 11 10 0 6 -2 10 -4 10 -3 0
-8 -4 -11 -10z"/>
<path d="M1558 7353 c7 -3 16 -2 19 1 4 3 -2 6 -13 5 -11 0 -14 -3 -6 -6z"/>
<path d="M1040 7335 c0 -8 7 -15 15 -15 8 0 15 4 15 9 0 5 -7 11 -15 15 -9 3
-15 0 -15 -9z"/>
<path d="M6390 7245 c0 -15 6 -25 14 -25 22 0 30 19 16 35 -18 22 -30 18 -30
-10z"/>
<path d="M6840 7215 c0 -8 5 -15 10 -15 6 0 10 7 10 15 0 8 -4 15 -10 15 -5 0
-10 -7 -10 -15z"/>
<path d="M6450 7170 c11 -20 31 -26 43 -13 11 10 -13 33 -35 33 -16 0 -17 -3
-8 -20z"/>
<path d="M6544 7145 c-8 -20 3 -48 17 -43 6 2 10 7 10 11 -1 4 -1 16 -1 27 0
23 -18 27 -26 5z"/>
<path d="M6645 7131 c4 -12 2 -21 -4 -21 -6 0 -11 -7 -11 -15 0 -24 24 -17 37
10 10 22 8 27 -9 36 -18 9 -19 8 -13 -10z"/>
<path d="M6667 7064 c-4 -4 -4 -10 -2 -14 6 -10 45 0 45 11 0 10 -33 12 -43 3z"/>
<path d="M6806 7055 c4 -8 8 -15 10 -15 2 0 4 7 4 15 0 8 -4 15 -10 15 -5 0
-7 -7 -4 -15z"/>
<path d="M6730 7044 c0 -8 5 -12 10 -9 6 4 8 11 5 16 -9 14 -15 11 -15 -7z"/>
<path d="M6760 7032 c0 -12 23 -32 37 -32 7 0 13 7 13 16 0 10 -6 14 -15 10
-8 -3 -15 -1 -15 4 0 6 -4 10 -10 10 -5 0 -10 -4 -10 -8z"/>
<path d="M6838 7013 c7 -3 16 -2 19 1 4 3 -2 6 -13 5 -11 0 -14 -3 -6 -6z"/>
<path d="M7026 7007 c-18 -13 -18 -14 -1 -21 22 -8 37 4 26 22 -6 9 -11 9 -25
-1z"/>
<path d="M17 6959 c-11 -6 -17 -22 -17 -42 1 -31 1 -31 16 -12 13 17 16 18 24
5 9 -13 13 -11 30 10 l19 25 -26 3 c-20 3 -23 6 -12 13 21 13 -10 12 -34 -2z"/>
<path d="M108 6953 c6 -2 18 -2 25 0 6 3 1 5 -13 5 -14 0 -19 -2 -12 -5z"/>
<path d="M7440 6950 c0 -5 7 -10 15 -10 8 0 15 5 15 10 0 6 -7 10 -15 10 -8 0
-15 -4 -15 -10z"/>
<path d="M118 6923 c7 -3 16 -2 19 1 4 3 -2 6 -13 5 -11 0 -14 -3 -6 -6z"/>
<path d="M1490 6820 c0 -5 4 -10 9 -10 6 0 13 5 16 10 3 6 -1 10 -9 10 -9 0
-16 -4 -16 -10z"/>
<path d="M7210 6798 c0 -23 29 -36 41 -17 15 24 10 37 -16 37 -18 0 -25 -6
-25 -20z"/>
<path d="M4100 3425 c-10 -12 -10 -15 3 -15 19 0 31 16 18 24 -5 3 -14 -1 -21
-9z"/>
<path d="M4010 3421 c0 -5 7 -14 15 -21 12 -10 15 -10 15 3 0 8 -7 17 -15 21
-8 3 -15 2 -15 -3z"/>
<path d="M6645 2030 c-4 -12 -5 -24 -2 -27 3 -2 8 5 12 17 4 12 5 24 2 27 -3
2 -8 -5 -12 -17z"/>
<path d="M4787 1462 c-21 -23 -16 -72 9 -93 8 -7 20 -22 26 -33 10 -19 10 -20
-5 -7 -25 20 -21 1 6 -33 20 -25 28 -28 53 -22 l29 8 -26 21 c-26 22 -61 75
-41 63 6 -3 23 -1 38 5 22 8 25 12 14 19 -11 7 -8 10 12 15 33 8 71 -3 65 -18
-3 -8 9 -12 32 -13 20 -1 26 1 14 3 -13 2 -23 7 -23 11 1 16 16 29 35 28 11 0
22 3 25 7 6 10 -70 38 -82 31 -5 -3 -15 -1 -22 5 -8 7 -42 14 -77 17 -56 6
-66 4 -82 -14z"/>
<path d="M5056 1405 c-21 -16 -14 -35 13 -35 22 0 45 25 36 40 -8 14 -26 12
-49 -5z"/>
<path d="M5113 1383 c-7 -2 -13 -9 -13 -15 0 -6 7 -8 15 -4 8 3 21 -1 29 -10
9 -9 17 -10 21 -4 11 18 35 10 45 -15 11 -28 22 -31 40 -11 6 8 26 16 43 18
32 4 31 4 -13 17 -25 7 -55 17 -68 22 -24 10 -79 11 -99 2z"/>
<path d="M5357 1347 c-12 -31 10 -39 104 -40 96 -1 144 7 134 23 -3 5 -13 6
-21 3 -9 -3 -20 0 -24 7 -9 15 -80 5 -80 -12 0 -13 -50 -1 -71 18 -20 18 -35
18 -42 1z"/>
<path d="M6100 1301 c0 -16 -4 -32 -10 -36 -26 -16 35 -54 77 -47 6 2 14 -2
18 -8 3 -5 17 -10 31 -10 19 0 29 10 49 52 14 28 25 53 25 54 0 2 -89 15 -142
20 -48 5 -48 4 -48 -25z"/>
<path d="M6472 1291 c-10 -6 -6 -10 15 -14 33 -6 51 2 32 14 -18 11 -30 11
-47 0z"/>
<path d="M5370 1270 c0 -5 7 -10 16 -10 8 0 12 5 9 10 -3 6 -10 10 -16 10 -5
0 -9 -4 -9 -10z"/>
<path d="M6510 1260 c-8 -5 -12 -12 -9 -15 8 -8 39 5 39 16 0 11 -11 11 -30
-1z"/>
<path d="M6783 1225 c-9 -10 -7 -14 13 -18 15 -3 24 0 24 8 0 19 -23 25 -37
10z"/>
<path d="M7460 1234 c0 -10 28 -34 41 -34 7 0 4 9 -9 20 -21 20 -32 25 -32 14z"/>
<path d="M5110 1220 c25 -5 140 -16 255 -24 116 -9 379 -29 585 -45 580 -45
570 -45 570 -27 0 10 -9 16 -22 16 -13 0 -36 7 -51 15 -22 11 -38 13 -72 5
-40 -9 -265 1 -352 15 -17 3 -82 8 -145 11 -62 2 -114 9 -116 14 -2 6 -11 6
-23 0 -10 -6 -29 -8 -41 -6 -27 6 -315 23 -503 30 -91 4 -117 2 -85 -4z"/>
<path d="M7600 1213 c0 -7 7 -10 15 -7 8 4 15 1 15 -5 0 -8 -12 -10 -37 -5
-34 6 -37 6 -25 -9 10 -11 23 -14 43 -10 25 5 29 2 29 -16 0 -25 -6 -25 58 -3
59 21 81 37 40 30 -16 -3 -28 -1 -28 3 0 17 -29 9 -33 -8 -3 -14 -8 -10 -18
14 -10 24 -19 32 -36 31 -13 -2 -23 -8 -23 -15z"/>
<path d="M7957 1183 c-12 -11 -8 -23 8 -23 8 0 15 7 15 15 0 16 -12 20 -23 8z"/>
</g>
</svg>
